<?xml version="1.0" encoding="utf-8"?>
<!-- Generator: Adobe Illustrator 24.2.3, SVG Export Plug-In . SVG Version: 6.00 Build 0)  -->
<svg version="1.1" id="Layer_1" xmlns="http://www.w3.org/2000/svg" xmlns:xlink="http://www.w3.org/1999/xlink" x="0px" y="0px"
	 viewBox="0 0 50.5 50.1" style="enable-background:new 0 0 50.5 50.1;" xml:space="preserve">
<style type="text/css">
	.st0{fill:#FFFFFF;}
</style>
<path class="st0" d="M106.8,9.5C105.8,5.9,103,3,99.3,2c-0.1,0-0.5,0.1-0.4-0.3H65.3C65.4,2.1,65.1,2,65,2c-3.7,0.9-6.5,3.8-7.5,7.5
	c0,0.1,0.1,0.5-0.3,0.4v33.6c0.4-0.1,0.3,0.2,0.3,0.4c0.9,3.6,3.8,6.5,7.4,7.4c0.2,0,0.5,0,0.4,0.3h33.6c-0.1-0.3,0.2-0.3,0.3-0.3
	c3.7-0.9,6.6-3.8,7.5-7.5c0-0.1,0-0.4,0.3-0.3V9.9C106.7,10,106.8,9.7,106.8,9.5z M95.6,17.3c-0.1-0.1-0.2-0.2-0.3-0.2
	C95.4,17.2,95.5,17.3,95.6,17.3L95.6,17.3z M74.5,40.8l0.4,0.2l0,0C74.7,40.9,74.6,40.9,74.5,40.8L74.5,40.8z M95.3,34.2
	c0.2-0.1,0.3-0.3,0.4-0.5C95.6,33.9,95.5,34,95.3,34.2L95.3,34.2z M96.9,32.9c0.1-0.2,0.2-0.4,0.2-0.6h0
	C97.1,32.5,97,32.7,96.9,32.9L96.9,32.9z M97.3,32.2c0.1-0.1,0.1-0.2,0.1-0.4C97.4,32,97.4,32.1,97.3,32.2L97.3,32.2z M97.4,31.8
	L97.4,31.8l0.2-0.3l0,0C97.5,31.6,97.5,31.7,97.4,31.8L97.4,31.8z M97.9,30.8c0-0.1-0.1-0.2-0.1-0.3c-0.1,0.3-0.2,0.6-0.3,1
	c-0.1,0.1-0.1,0.2-0.1,0.3c-0.1,0.2-0.2,0.3-0.3,0.5c-0.4,0.4-0.9,0.9-1.3,1.3c-0.8,0.4-1.6,0.7-2.5,0.9c-2.1,0.3-4.2-0.4-5.7-1.9
	c0,0,0-0.1,0-0.1l-0.1-0.2c-0.1,0-0.2-0.1-0.3-0.3c0,0.1,0.1,0.2,0.3,0.3l0,0l0,0l0,0l0,0l-0.3-0.5c0-0.1-0.1-0.3-0.2-0.4
	c0.1,0.1,0.1,0.2,0.2,0.3v0L87,31.5l0,0l-0.2-0.4c-0.1-0.1-0.2-0.2-0.2-0.3c0.1,0.1,0.1,0.2,0.2,0.3l0,0l0,0l0,0l0,0
	c-0.1-0.7-0.3-1.3-0.4-2c0-0.9,0-1.8,0-2.7c0,0-0.1,0-0.1,0c0,0,0.1,0,0.1,0c0-0.2,0-0.3-0.1-0.4c0-0.1,0-0.2,0-0.3
	c0-0.5-0.1-1-0.5-1.3c0-0.3-0.1-0.5-0.4-0.7l-0.3-0.3L85,23.4l0,0c-0.1-0.1-0.1-0.1-0.2-0.2l0,0c-0.1-0.2-0.3-0.3-0.5-0.4
	c-0.1-0.1-0.2-0.2-0.3-0.2c-1.3-0.8-3-0.7-4.2,0.2l0,0c-0.2,0.1-0.4,0.2-0.5,0.4l0,0c-0.1,0-0.2,0.1-0.2,0.2l0-0.1
	c-0.2,0.1-0.3,0.2-0.4,0.4l0.1,0c-0.1,0-0.2,0.1-0.2,0.2l0,0c-0.1,0.1-0.1,0.1-0.2,0.2l0,0c-0.1,0-0.2,0.1-0.2,0.2c0,0,0,0.1,0,0.1
	c0,0,0,0,0,0c-0.2,0.2-0.3,0.4-0.4,0.7l0,0c-0.3,0.7-0.4,1.4-0.3,2.2c0.3,2.4,2.4,4.1,4.8,3.8c0.2,0,0.3,0,0.5-0.1
	c1.6-0.4,2.2-0.1,2.8,1.3c0,0.3-0.1,0.7-0.1,1c0,0,0,0.1,0,0.1v0L85,34c-1.2,0.5-2.5,0.6-3.7,0.5c-1.2-0.2-2.4-0.5-3.4-1.1l0,0
	l-0.2-0.2c-0.1,0-0.3,0-0.4-0.1c0.1,0.1,0.2,0.1,0.4,0.1h0l0,0l0,0h0c-0.2-0.1-0.3-0.2-0.5-0.4L77,32.8l-0.2-0.2l0,0l-0.3-0.2
	c-0.1-0.1-0.2-0.2-0.3-0.3c0-0.1-0.1-0.1-0.1-0.2l-0.2-0.3l0,0l-0.2-0.2c-0.1,0-0.2-0.1-0.3-0.2c0.1,0.1,0.2,0.2,0.3,0.2l0,0
	c0,0,0,0,0,0l0,0l0,0c-0.1-0.2-0.2-0.3-0.4-0.5l0,0l-0.1-0.2l0,0L75,30.5l0,0l-0.2-0.2C74.3,29,74,27.5,74,26.1c0-0.4,0.2-0.7,0.1-1
	l0-0.5c0.1,0,0.2-0.2,0.2-0.4c0,0,0,0,0,0c0,0,0,0,0-0.1c0,0,0,0,0,0c0.1-0.1,0.2-0.3,0.2-0.4l0,0l0,0l0.1-0.2
	c0.1-0.1,0.2-0.3,0.2-0.5c0.1,0,0.2-0.1,0.1-0.2c0,0,0-0.1,0-0.1c0.2-0.1,0.4-0.3,0.3-0.5c0.1,0,0.2-0.1,0.1-0.2
	c0.4-0.4,0.8-0.8,1.2-1.2c2.9-2.7,7.3-2.8,10.4-0.3c1.8,1.4,2.8,3.5,3,5.8c-0.1,1.2-0.1,2.3,0.1,3.5c0.5,1.2,1.9,1.7,3.1,1.2
	c0.3-0.2,0.6-0.4,0.9-0.7c0.2-0.3,0.4-0.6,0.3-1c0-1.2,0-2.5,0-3.7c0-0.7-0.1-1.4-0.4-2l0,0c0-0.4-0.1-0.7-0.4-1c0,0,0-0.1,0-0.1
	c0-0.2,0-0.3-0.1-0.4c-0.1-0.3-0.2-0.6-0.3-0.8c-0.7-1.5-1.7-2.7-2.9-3.8c0-0.2-0.2-0.2-0.3-0.2c0-0.2-0.2-0.3-0.3-0.4
	c0,0-0.1-0.1-0.1-0.1c-0.1-0.2-0.2-0.2-0.4-0.2c-0.1-0.1-0.1-0.1-0.2-0.2c0,0,0,0,0,0c-0.6-0.6-1.4-1-2.2-1.1c0,0-0.1,0-0.1,0
	c-0.6-0.4-1.3-0.6-2-0.6c-0.1,0-0.2,0-0.3,0c-0.1-0.2-0.3-0.2-0.4-0.2c-1.4-0.2-2.8-0.2-4.1,0.1c-0.2,0-0.3,0-0.4,0.1L79,14.6
	c-1.7,0.3-3.2,1.1-4.5,2.3c-0.2,0-0.4,0.1-0.5,0.3l0,0l-0.2,0.2l-0.1,0.1l-0.2,0.2L73.1,18c-0.1,0.1-0.1,0.2-0.2,0.2l-0.1,0.1
	l-0.2,0.2l0,0c-0.1,0.1-0.1,0.1-0.2,0.2l0,0c-0.2,0.1-0.4,0.3-0.4,0.5L72,19.3l-0.2,0.2l0,0.1l-0.2,0.3l0,0c-0.1,0-0.2,0.1-0.2,0.2
	l-0.2,0.3c-0.2,0.1-0.2,0.3-0.3,0.5c0,0,0,0.1,0,0.1l-0.1,0.2c0,0,0,0.1,0,0.1c-0.2,0.2-0.3,0.4-0.3,0.7c0,0,0,0.1,0,0.1l-0.1,0.2
	l0,0.3c-0.6,1.7-0.8,3.5-0.6,5.2c0.2,4.4,3.6,8.8,8.2,10.5c2.8,1,5.9,1,8.7-0.1c1.4-0.6,2.1-0.3,2.8,1c0.1,0.2,0.1,0.3,0.1,0.5
	c0-0.2-0.1-0.3-0.1-0.5c0.1,1.2-0.2,1.8-1.2,2.2c-3,1.3-6.4,1.6-9.6,0.9c-1.3-0.3-2.5-0.9-3.8-1.2c-0.1-0.2-0.2-0.1-0.3-0.2
	c-0.1-0.2-0.2-0.1-0.3-0.2c0.1,0.1,0.2,0.1,0.3,0.2h0c-0.1-0.1-0.2-0.1-0.3-0.2c-4.5-2.9-7.4-6.9-8-12.4C65.8,25,66.4,21.8,68,19
	c0-0.1,0-0.2,0-0.2l0,0c0.3-0.3,0.6-0.7,0.7-1.2c0.4-0.2,0.5-0.7,0.8-1l0,0c0.1-0.1,0.2-0.2,0.2-0.3c0.3,0,0.3-0.2,0.5-0.4
	c5.9-6.6,15.9-7.1,22.5-1.3c0.7,0.7,1.4,1.4,2,2.2c0.1,0.1,0.2,0.2,0.2,0.2h0c1.5,2.1,2.5,4.6,2.9,7.2c0.3,2.1,0.3,4.2,0,6.3
	C97.9,30.6,97.9,30.7,97.9,30.8z M85.3,33.9c-0.1,0-0.1,0.1-0.2,0.1C85.2,34,85.2,34,85.3,33.9L85.3,33.9z M85,34c0,0,0,0.1-0.1,0.1
	C84.9,34.1,85,34.1,85,34L85,34z M76.5,32.5L76.5,32.5l-0.1-0.1h0C76.4,32.4,76.5,32.4,76.5,32.5L76.5,32.5z M76.3,32.3L76.3,32.3
	l-0.1-0.1l0,0C76.2,32.2,76.3,32.3,76.3,32.3L76.3,32.3z M76.2,32.1L76.2,32.1L76,32l0,0C76.1,32,76.1,32.1,76.2,32.1L76.2,32.1z
	 M70.2,25.7c0-0.2-0.1-0.4-0.2-0.5v0C70.1,25.4,70.1,25.5,70.2,25.7L70.2,25.7z"/>
<g>
	<path class="st0" d="M25.2,50.1c-5.3,0-10.6,0-15.8,0c-0.7,0-1.3-0.2-1.9-0.4S6.3,49.3,5.8,49c-0.8-0.4-1.5-0.9-2.1-1.5
		c-0.9-0.8-1.7-1.8-2.3-2.8c-0.3-0.6-0.6-1.2-0.8-1.8c-0.1-0.5-0.3-1-0.4-1.6v-0.1c0-0.1,0-0.1,0-0.2c0-10.6,0-21.2,0-31.9
		c0-0.4,0.1-0.7,0.2-1.1c0.2-0.9,0.5-1.7,0.9-2.5c0.5-0.8,1-1.6,1.6-2.3c0.8-0.8,1.7-1.5,2.7-2.1c0.6-0.3,1.2-0.6,1.8-0.8
		c0.5-0.1,1-0.3,1.5-0.4c0.1,0,0.3,0,0.4,0c0.5,0,0.9,0,1.4,0c9.7,0,19.3,0,29,0c0.3,0,0.7,0,1,0c0.8,0,1.5,0.2,2.2,0.4
		C43.5,0.5,44,0.7,44.6,1c0.8,0.4,1.5,0.9,2.1,1.4C47.4,3,48,3.6,48.4,4.3c0.5,0.7,0.9,1.5,1.2,2.3C49.8,7.3,50,8,50.2,8.7
		c0,0.1,0,0.2,0,0.3c0,1.3,0,2.5,0,3.8c0,8.8,0,17.6,0,26.5c0,0.4,0,0.7,0,1.1c0,0.8-0.2,1.6-0.4,2.4c-0.3,0.8-0.6,1.6-1,2.3
		c-0.7,1.2-1.7,2.2-2.8,3c-0.7,0.5-1.4,0.9-2.2,1.2c-0.7,0.3-1.3,0.4-2,0.6c-0.5,0.1-1,0.1-1.5,0.1C35.3,50.1,30.3,50.1,25.2,50.1
		L25.2,50.1z M7.3,25.7L7.3,25.7c0,1.2,0,2.4,0,3.5c0,4,0,8,0,12c0,0.2,0,0.4,0.1,0.5C7.5,42.6,8.2,43,8.9,43c1.4,0,2.9,0,4.3,0
		c0.4,0,0.4,0,0.4-0.4c0-2.4,0-4.8,0-7.2c0-0.4,0-0.7,0.1-1.1c0.1-0.6,0.6-1.1,1.1-1.5s1.1-0.5,1.7-0.5c1.1,0,2.2,0,3.2,0
		c0.3,0,0.6,0,0.9,0.1c0.6,0.1,1.1,0.5,1.4,0.9c0.4,0.4,0.6,0.9,0.6,1.5c0,2.6,0,5.2,0,7.8c0,0.2,0.1,0.3,0.3,0.3c1.9,0,3.7,0,5.6,0
		c0.3,0,0.3,0,0.3-0.3c0-10.2,0-20.3,0-30.5c0-0.6-0.3-1.1-0.6-1.6c-0.5-0.6-1.2-0.8-2-0.9c-0.3,0-0.7-0.1-1-0.1s-0.6-0.1-0.8-0.2
		c-0.5-0.1-1.1-0.1-1.6-0.2c-0.5-0.1-1-0.2-1.6-0.3c-0.4-0.1-0.9-0.1-1.3-0.2c-0.6-0.1-1.3-0.2-1.9-0.3S16.7,8.1,16.1,8
		c-0.5,0.1-1,0-1.6,0c-0.3,0-0.5-0.1-0.8-0.1c-0.3-0.1-0.6-0.1-0.9-0.2c-0.3,0-0.6-0.1-0.9-0.1c-0.2,0-0.4-0.1-0.7-0.1
		c-0.4-0.1-0.8-0.1-1.2-0.2c-0.3,0-0.5,0-0.8,0.1C8.7,7.5,8.3,7.7,8,8.1c-0.5,0.6-0.7,1.3-0.7,2C7.3,15.3,7.3,20.5,7.3,25.7z
		 M30.6,32.1L30.6,32.1c0,3.5,0,7,0,10.6c0,0.4,0,0.4,0.4,0.4c2.6,0,5.2,0,7.8,0c0.8,0,1.6,0.1,2.3-0.1c0.4-0.1,0.8-0.2,1.1-0.5
		c0.7-0.6,1-1.4,1-2.3c0-4.5,0-9.1,0-13.6c0-0.6,0-1.1-0.2-1.6s-0.5-0.9-1-1.2c-0.4-0.3-1-0.4-1.5-0.5c-0.2,0-0.4-0.1-0.6-0.1
		c-0.4-0.1-0.8-0.2-1.1-0.3c-0.4-0.1-0.8-0.1-1.2-0.2c-0.5-0.1-1.1-0.2-1.6-0.4c-0.2,0-0.3-0.1-0.5-0.1s-0.5-0.1-0.7-0.1
		c-0.4-0.1-0.8-0.2-1.3-0.3c-0.2,0-0.5-0.1-0.7-0.1c-0.4-0.1-0.7-0.2-1.1-0.2c-0.3-0.1-0.5-0.1-0.8-0.2s-0.5,0-0.5,0.3
		C30.6,25,30.6,28.5,30.6,32.1z"/>
	<path class="st0" d="M14.4,15.7c-0.4,0-0.8,0-1.2,0c-0.5,0-0.9-0.4-1.1-0.8c-0.3-0.6,0.2-1.3,0.7-1.5c0.2-0.1,0.4-0.1,0.6-0.1
		c0.6,0,1.3,0,1.9,0c0.7,0,1,0.2,1.3,0.9c0.1,0.3-0.1,1-0.4,1.2c-0.3,0.2-0.5,0.3-0.9,0.3C15.1,15.6,14.7,15.7,14.4,15.7z"/>
	<path class="st0" d="M14.4,29.2c-0.4,0-0.7,0-1.1,0c-0.8,0-1.2-0.5-1.3-1.1c-0.1-0.4,0.2-1,0.8-1.2c0.2-0.1,0.4-0.1,0.6-0.1
		c0.6,0,1.3,0,1.9,0c0.7,0,1.1,0.4,1.3,0.9c0.1,0.3,0,0.6-0.2,0.9c-0.3,0.4-0.6,0.6-1.2,0.6C15,29.2,14.7,29.2,14.4,29.2z"/>
	<path class="st0" d="M14.4,24.7c-0.4,0-0.7,0-1.1,0c-0.7,0-1.1-0.5-1.3-1.1c-0.1-0.5,0.4-1.1,0.9-1.2c0.8-0.2,1.6-0.1,2.5-0.1
		c0.2,0,0.5,0.1,0.7,0.2c0.6,0.3,0.9,1.2,0.3,1.8c-0.3,0.3-0.6,0.5-1,0.4C15,24.7,14.7,24.7,14.4,24.7z"/>
	<path class="st0" d="M14.4,20.2c-0.4,0-0.7,0-1.1,0c-0.5,0-1-0.3-1.1-0.9c-0.2-0.6,0.1-1.2,0.7-1.4c0.2-0.1,0.4-0.1,0.6-0.1
		c0.6,0,1.3,0,1.9,0c0.7,0,1.1,0.2,1.4,0.9c0.1,0.3-0.1,0.9-0.4,1.2c-0.3,0.2-0.5,0.3-0.9,0.3S14.7,20.2,14.4,20.2z"/>
	<path class="st0" d="M21.9,15.7c-0.4,0-0.7,0-1.1,0c-0.6,0-1-0.2-1.2-0.8c-0.2-0.7,0.1-1.4,0.9-1.5s1.6-0.1,2.5-0.1
		c0.5,0,1,0.3,1.2,0.8c0.3,0.8-0.1,1.6-1,1.6C22.7,15.7,22.3,15.7,21.9,15.7L21.9,15.7z"/>
	<path class="st0" d="M21.9,29.2c-0.4,0-0.7,0-1.1,0c-0.6,0-1-0.4-1.2-0.9c-0.2-0.6,0.2-1.3,0.8-1.5c0.2-0.1,0.4-0.1,0.6-0.1
		c0.6,0,1.3,0,1.9,0c0.5,0,0.9,0.2,1.2,0.7c0.3,0.6,0.1,1.5-0.7,1.6C22.9,29.2,22.4,29.2,21.9,29.2C21.9,29.3,21.9,29.2,21.9,29.2z"
		/>
	<path class="st0" d="M21.9,24.7c-0.4,0-0.7,0-1.1,0c-0.9,0-1.5-0.9-1.1-1.8c0.2-0.4,0.6-0.7,1.1-0.7c0.7,0,1.5,0,2.2,0
		c0.5,0,1,0.4,1.2,0.8c0.1,0.4,0.1,0.9-0.3,1.3c-0.2,0.2-0.5,0.3-0.8,0.3C22.7,24.7,22.3,24.7,21.9,24.7z"/>
	<path class="st0" d="M21.9,20.2c-0.4,0-0.8,0-1.1,0c-0.6,0-1.2-0.6-1.2-1.2s0.3-1,0.9-1.2c0.2,0,0.4-0.1,0.6-0.1c0.6,0,1.2,0,1.7,0
		s1,0.3,1.2,0.8s0,1.2-0.4,1.5c-0.2,0.1-0.4,0.2-0.7,0.2C22.6,20.2,22.3,20.2,21.9,20.2z"/>
	<path class="st0" d="M36.6,27.2c0.4,0,0.7,0,1.1,0c0.5,0,0.9,0.3,1.2,0.7c0.2,0.4,0,1.2-0.4,1.4c-0.3,0.2-0.6,0.3-1,0.3
		c-0.6,0-1.3,0-1.9,0c-0.6,0-1-0.3-1.2-0.8c-0.2-0.6,0.1-1.3,0.6-1.5c0.2-0.1,0.4-0.1,0.5-0.1C35.9,27.2,36.2,27.2,36.6,27.2z"/>
	<path class="st0" d="M36.6,31.7c0.4,0,0.7,0,1.1,0c0.6,0,0.9,0.3,1.1,0.7c0.3,0.6-0.2,1.5-0.8,1.6s-1.2,0.1-1.8,0.1
		c-0.3,0-0.6,0-1-0.1c-0.8-0.1-1.2-1-0.8-1.7c0.2-0.4,0.6-0.6,1-0.6C35.8,31.7,36.2,31.7,36.6,31.7z"/>
	<path class="st0" d="M36.6,36.2c0.4,0,0.8,0,1.2,0c0.6,0,1,0.5,1.1,1c0,0.5-0.1,0.8-0.5,1.1c-0.2,0.2-0.4,0.2-0.6,0.2
		c-0.8,0-1.7,0-2.5,0c-0.4,0-0.9-0.6-1-1c0-0.6,0.3-1.1,0.8-1.3c0.1,0,0.2,0,0.3,0l0,0C35.8,36.2,36.2,36.2,36.6,36.2z"/>
</g>
</svg>
