<?xml version="1.0" encoding="utf-8"?>
<!-- Generator: Adobe Illustrator 23.1.0, SVG Export Plug-In . SVG Version: 6.00 Build 0)  -->
<svg version="1.1" id="Layer_2" xmlns="http://www.w3.org/2000/svg" xmlns:xlink="http://www.w3.org/1999/xlink" x="0px" y="0px"
	 viewBox="0 0 100 100" style="enable-background:new 0 0 100 100;" xml:space="preserve">
<style type="text/css">
	.st0{fill:none;stroke:#FFFFFF;stroke-width:3;stroke-linecap:round;stroke-linejoin:round;stroke-miterlimit:10;}
</style>
<polyline class="st0" points="50,30.1 68.3,18.3 50.1,6.6 32.2,18.3 32.2,39.6 50,51.6 50,30.1 32.2,18.3 "/>
<polygon class="st0" points="23.2,51.6 38.8,62.3 38.8,82.1 23.2,93.4 6.2,82.3 6.2,62.3 "/>
<polyline class="st0" points="38.8,62.3 23.2,72.5 23.2,93.4 "/>
<line class="st0" x1="23.2" y1="72.5" x2="6.2" y2="62.3"/>
<polygon class="st0" points="77.6,51.6 93.2,62.3 93.2,82.1 77.6,93.4 60.5,82.3 60.5,62.3 "/>
<polyline class="st0" points="93.2,62.3 77.6,72.5 77.6,93.4 "/>
<line class="st0" x1="77.6" y1="72.5" x2="60.5" y2="62.3"/>
<polyline class="st0" points="50,51.6 68.3,39.8 68.3,34 "/>
<line class="st0" x1="29.1" y1="55.6" x2="41" y2="45.5"/>
<line class="st0" x1="71.4" y1="55.5" x2="59.6" y2="45.4"/>
<line class="st0" x1="38.8" y1="74.4" x2="60.5" y2="74.4"/>
<line class="st0" x1="68.3" y1="26.1" x2="68.3" y2="27"/>
</svg>
