<?xml version="1.0" encoding="utf-8"?>
<!-- Generator: Adobe Illustrator 24.2.3, SVG Export Plug-In . SVG Version: 6.00 Build 0)  -->
<svg version="1.1" id="Layer_2" xmlns="http://www.w3.org/2000/svg" xmlns:xlink="http://www.w3.org/1999/xlink" x="0px" y="0px"
	 viewBox="0 0 100 100" style="enable-background:new 0 0 100 100;" xml:space="preserve">
<style type="text/css">
	.st0{fill:none;stroke:#666666;stroke-width:3;stroke-linecap:round;stroke-linejoin:round;stroke-miterlimit:10;}
</style>
<polyline class="st0" points="50,30.07 68.3,18.31 50.1,6.58 32.22,18.31 32.22,39.57 50,51.56 50,30.07 32.22,18.31 "/>
<polygon class="st0" points="23.2,51.56 38.78,62.25 38.78,82.11 23.2,93.36 6.17,82.3 6.17,62.25 "/>
<polyline class="st0" points="38.78,62.25 23.2,72.46 23.2,93.36 "/>
<line class="st0" x1="23.2" y1="72.46" x2="6.17" y2="62.25"/>
<polygon class="st0" points="77.57,51.56 93.16,62.25 93.16,82.11 77.57,93.36 60.54,82.3 60.54,62.25 "/>
<polyline class="st0" points="93.16,62.25 77.57,72.46 77.57,93.36 "/>
<line class="st0" x1="77.57" y1="72.46" x2="60.54" y2="62.25"/>
<polyline class="st0" points="50,51.56 68.3,39.85 68.3,34.04 "/>
<line class="st0" x1="29.13" y1="55.63" x2="41.05" y2="45.52"/>
<line class="st0" x1="71.37" y1="55.46" x2="59.59" y2="45.43"/>
<line class="st0" x1="38.78" y1="74.43" x2="60.54" y2="74.43"/>
<line class="st0" x1="68.3" y1="26.07" x2="68.3" y2="27.02"/>
</svg>
