<?xml version="1.0" encoding="utf-8"?>
<!-- Generator: Adobe Illustrator 24.2.3, SVG Export Plug-In . SVG Version: 6.00 Build 0)  -->
<svg version="1.1" id="Layer_1" xmlns="http://www.w3.org/2000/svg" xmlns:xlink="http://www.w3.org/1999/xlink" x="0px" y="0px"
	 viewBox="0 0 60 60" style="enable-background:new 0 0 60 60;" xml:space="preserve">
<style type="text/css">
	.st0{fill:#FFFFFF;}
</style>
<g>
	<path class="st0" d="M32.18,58.49c-1.45,0-2.89,0-4.34,0c-0.06-0.01-0.13-0.03-0.19-0.03c-3.09-0.06-6.18-0.1-9.28-0.17
		c-1.7-0.04-3.37-0.26-5.02-0.68c-3.07-0.78-5.69-2.3-7.78-4.71c-2.04-2.35-3.09-5.12-3.58-8.15c-0.28-1.7-0.33-3.42-0.38-5.14
		c-0.06-2.25-0.06-4.5-0.08-6.75c0-0.14-0.02-0.29-0.03-0.43c0-1.64,0-3.28,0-4.92c0.01-0.61,0.03-1.22,0.03-1.83
		c0.02-3.13,0.02-6.25,0.31-9.37c0.14-1.51,0.46-2.99,0.96-4.43c1.34-3.81,3.82-6.63,7.44-8.42c2.23-1.1,4.63-1.6,7.1-1.74
		c1.76-0.1,3.52-0.18,5.28-0.19c4.09-0.03,8.18-0.03,12.27-0.02c2.74,0,5.48,0.04,8.21,0.25c1.5,0.12,2.97,0.38,4.41,0.83
		c3.94,1.23,6.91,3.64,8.83,7.3c1.22,2.33,1.75,4.85,1.91,7.45c0.1,1.69,0.18,3.39,0.19,5.08c0.03,6.4,0.14,12.79-0.13,19.19
		c-0.07,1.7-0.26,3.38-0.68,5.02c-0.64,2.47-1.76,4.7-3.5,6.59c-2.53,2.75-5.73,4.2-9.38,4.77c-1.73,0.27-3.47,0.34-5.21,0.37
		c-2.38,0.05-4.76,0.06-7.14,0.08C32.33,58.46,32.26,58.48,32.18,58.49z M6.71,29.98c-0.04,4.19-0.1,8.37,0.19,12.56
		c0.1,1.42,0.36,2.81,0.87,4.15c0.91,2.39,2.52,4.14,4.82,5.23c1.69,0.8,3.51,1.13,5.37,1.21c2.34,0.1,4.67,0.18,7.01,0.19
		c5.34,0.02,10.69,0.09,16.03-0.13c1.57-0.07,3.14-0.2,4.67-0.63c2.51-0.7,4.49-2.11,5.84-4.35c0.95-1.57,1.39-3.31,1.55-5.11
		c0.13-1.54,0.23-3.08,0.24-4.62c0.07-6.77,0.18-13.53-0.13-20.3c-0.06-1.31-0.24-2.6-0.58-3.87c-0.69-2.51-2.11-4.49-4.35-5.83
		c-1.56-0.94-3.3-1.38-5.1-1.53c-1.69-0.14-3.38-0.23-5.08-0.25c-6.65-0.07-13.29-0.17-19.94,0.14c-1.5,0.07-2.97,0.3-4.4,0.77
		c-2.2,0.73-3.92,2.07-5.14,4.03C7.59,13.22,7.13,15,6.96,16.85c-0.14,1.55-0.22,3.11-0.24,4.67C6.68,24.33,6.71,27.15,6.71,29.98z"
		/>
	<path class="st0" d="M30.01,44.61c-8.09,0-14.64-6.55-14.62-14.63c0.01-8.09,6.54-14.61,14.62-14.61c8.09,0,14.64,6.55,14.62,14.63
		C44.62,38.08,38.09,44.6,30.01,44.61z M39.5,29.98c-0.01-5.23-4.26-9.48-9.49-9.49c-5.22-0.01-9.48,4.24-9.49,9.48
		c-0.02,5.22,4.28,9.52,9.5,9.5C35.26,39.46,39.5,35.2,39.5,29.98z"/>
	<path class="st0" d="M48.62,14.79c0,1.89-1.54,3.42-3.42,3.41c-1.88,0-3.42-1.55-3.42-3.43c0-1.89,1.53-3.42,3.44-3.42
		C47.11,11.37,48.63,12.89,48.62,14.79z"/>
</g>
</svg>
