<?xml version="1.0" encoding="utf-8"?>
<!-- Generator: Adobe Illustrator 24.2.3, SVG Export Plug-In . SVG Version: 6.00 Build 0)  -->
<svg version="1.1" id="圖層_1" xmlns="http://www.w3.org/2000/svg" xmlns:xlink="http://www.w3.org/1999/xlink" x="0px" y="0px"
	 viewBox="0 0 100 100" style="enable-background:new 0 0 100 100;" xml:space="preserve">
<style type="text/css">
	.st0{fill:#666666;}
</style>
<path class="st0" d="M90.44,20.29L51.4,5.11c-0.5-0.19-1.06-0.13-1.5,0.17c-0.19,0.14-0.36,0.31-0.48,0.52l-7.94,3.14
	c-0.83,0.34-1.24,1.29-0.9,2.12c0.25,0.61,0.83,1.01,1.49,1.02c0.2,0,0.41-0.04,0.6-0.11l6.48-2.56l-0.49,40l-36.88,14v-2
	c0-0.9-0.73-1.63-1.63-1.63s-1.63,0.73-1.63,1.63l0,0v4.35l0,0v11.9c0,0.66,0.39,1.26,1,1.52l40.71,15.71
	c0.19,0.07,0.38,0.11,0.58,0.11c0.22,0,0.43-0.04,0.63-0.12l39-16.27c0.6-0.26,1-0.85,1-1.5v-55.3
	C91.44,21.15,91.05,20.55,90.44,20.29z M88.22,22.92v40.83l-8.83-3.48L79,37.5c-0.02-0.67-0.44-1.27-1.07-1.5l-15.18-5.42
	c-0.84-0.31-1.77,0.12-2.08,0.96c-0.07,0.19-0.1,0.39-0.1,0.59l0.23,20.81l-8.89-3.5L52.41,9L88.22,22.92z M50.22,52.29l26.9,10.59
	l0,0l8.28,3.27L50.27,80.23L14.61,65.77L50.22,52.29z M63.85,34.42l11.92,4.26L76.12,59l-12.05-4.77L63.85,34.42z M50.79,91.62
	l-39-15.08v-8.4l37.87,15.35c0.39,0.15,0.83,0.15,1.22,0l37.34-15V76L50.79,91.62z"/>
<path class="st0" d="M26.94,18.05c0.21,0,0.41-0.03,0.6-0.11l8.07-3.19c0.86-0.26,1.35-1.16,1.09-2.01
	c-0.26-0.86-1.16-1.35-2.01-1.09c-0.09,0.03-0.18,0.06-0.27,0.11l-8.07,3.18c-0.83,0.34-1.24,1.29-0.9,2.12
	c0.25,0.61,0.83,1.01,1.49,1.02L26.94,18.05z"/>
<path class="st0" d="M11.82,24c0.2,0,0.4-0.03,0.59-0.11l8.07-3.18c0.88-0.21,1.41-1.09,1.2-1.97c-0.21-0.88-1.09-1.41-1.97-1.2
	c-0.15,0.04-0.29,0.09-0.43,0.17l-8.07,3.18c-0.83,0.34-1.24,1.29-0.9,2.12c0.25,0.61,0.84,1.01,1.5,1.02V24z"/>
<path class="st0" d="M10.15,55.42c0.9,0,1.63-0.73,1.63-1.63l0,0v-8.67c0-0.9-0.73-1.63-1.63-1.63s-1.63,0.73-1.63,1.63l0,0v8.67
	C8.52,54.69,9.25,55.42,10.15,55.42z"/>
<path class="st0" d="M10.15,39.16c0.9,0,1.63-0.73,1.63-1.63l0,0v-8.68c0-0.9-0.73-1.63-1.63-1.63c-0.9,0-1.63,0.73-1.63,1.63l0,0
	v8.68C8.52,38.43,9.25,39.16,10.15,39.16L10.15,39.16z"/>
</svg>
