<?xml version="1.0" encoding="utf-8"?>
<!-- Generator: Adobe Illustrator 24.2.3, SVG Export Plug-In . SVG Version: 6.00 Build 0)  -->
<svg version="1.1" id="Layer_1" xmlns="http://www.w3.org/2000/svg" xmlns:xlink="http://www.w3.org/1999/xlink" x="0px" y="0px"
	 viewBox="0 0 50.5 50.1" style="enable-background:new 0 0 50.5 50.1;" xml:space="preserve">
<style type="text/css">
	.st0{fill:#FFFFFF;}
</style>
<path class="st0" d="M60.4,89c-0.9-3.7-3.8-6.5-7.5-7.5c-0.1,0-0.5,0.1-0.4-0.3H19c0.1,0.4-0.2,0.3-0.4,0.3
	c-3.7,0.9-6.5,3.8-7.5,7.5c0,0.1,0.1,0.5-0.3,0.4V123c0.4-0.1,0.3,0.2,0.3,0.4c0.9,3.6,3.8,6.5,7.4,7.4c0.2,0,0.5,0,0.4,0.3h33.6
	c-0.1-0.3,0.2-0.3,0.3-0.3c3.7-0.9,6.6-3.8,7.5-7.5c0-0.1,0-0.4,0.3-0.3V89.4C60.4,89.5,60.5,89.2,60.4,89z M49.2,96.9
	c-0.1-0.1-0.2-0.2-0.3-0.2C49,96.7,49.1,96.8,49.2,96.9L49.2,96.9z M28.1,120.3l0.4,0.2l0,0C28.4,120.4,28.2,120.4,28.1,120.3
	L28.1,120.3z M49,113.7c0.2-0.1,0.3-0.3,0.4-0.5C49.3,113.4,49.1,113.6,49,113.7L49,113.7z M50.6,112.4c0.1-0.2,0.2-0.4,0.2-0.6h0
	C50.7,112,50.6,112.2,50.6,112.4L50.6,112.4z M51,111.7c0.1-0.1,0.1-0.2,0.1-0.4C51.1,111.5,51,111.6,51,111.7L51,111.7z
	 M51.1,111.3L51.1,111.3l0.2-0.3l0,0C51.2,111.1,51.1,111.2,51.1,111.3L51.1,111.3z M39,113.5c-0.1,0-0.1,0.1-0.2,0.1
	C38.8,113.5,38.9,113.5,39,113.5L39,113.5z M38.6,113.5c0,0,0,0.1-0.1,0.1C38.6,113.6,38.6,113.6,38.6,113.5L38.6,113.5z M30.1,112
	L30.1,112l-0.1-0.1h0C30.1,111.9,30.1,111.9,30.1,112L30.1,112z M30,111.8L30,111.8l-0.1-0.1l0,0C29.9,111.7,29.9,111.8,30,111.8
	L30,111.8z M29.8,111.6L29.8,111.6l-0.1-0.1l0,0C29.7,111.6,29.8,111.6,29.8,111.6L29.8,111.6z M23.8,105.3c0-0.2-0.1-0.4-0.2-0.5v0
	C23.7,104.9,23.8,105.1,23.8,105.3L23.8,105.3z"/>
<path class="st0" d="M49.7,6.7c-0.3-0.8-0.7-1.6-1.2-2.3c-0.4-0.7-1-1.3-1.7-1.9c-0.6-0.5-1.3-1-2.1-1.4C44,0.8,43.5,0.6,43,0.4
	c-0.7-0.2-1.4-0.4-2.2-0.4c-0.3,0-0.7,0-1,0c-9.7,0-19.3,0-29,0c-0.5,0-0.9,0-1.4,0c-0.1,0-0.3,0-0.4,0C8.5,0.1,8,0.3,7.5,0.4
	C6.8,0.6,6.2,0.9,5.7,1.2C4.7,1.8,3.8,2.4,3,3.3C2.3,3.9,1.8,4.8,1.3,5.6C1,6.4,0.7,7.2,0.5,8.1C0.3,8.4,0.2,8.8,0.2,9.2
	c0,10.7,0,21.3,0,31.9c0,0.1,0,0.1,0,0.2v0.1c0.1,0.6,0.3,1.1,0.4,1.6c0.2,0.6,0.5,1.2,0.8,1.8c0.6,1,1.4,2,2.3,2.8
	c0.6,0.6,1.3,1.1,2.1,1.5c0.5,0.3,1.1,0.5,1.7,0.7c0.6,0.2,1.2,0.4,1.9,0.4c5.2,0,10.5,0,15.8,0c5.1,0,10.1,0,15.1-0.1
	c0.5,0,1,0,1.5-0.1c0.7-0.2,1.3-0.3,2-0.6c0.8-0.3,1.5-0.7,2.2-1.2c1.1-0.8,2.1-1.8,2.8-3c0.4-0.7,0.7-1.5,1-2.3
	c0.2-0.8,0.4-1.6,0.4-2.4c0-0.4,0-0.7,0-1.1c0-8.9,0-17.7,0-26.5c0-1.3,0-2.5,0-3.8c0-0.1,0-0.2,0-0.3C50,8.1,49.8,7.4,49.7,6.7z
	 M41.1,29.3c0-0.1-0.1-0.2-0.1-0.3c-0.1,0.3-0.2,0.6-0.3,1c-0.1,0.1-0.1,0.2-0.1,0.3c-0.1,0.2-0.2,0.3-0.3,0.5
	c-0.4,0.4-0.9,0.9-1.3,1.3c-0.8,0.4-1.6,0.7-2.5,0.9c-2.1,0.3-4.2-0.4-5.7-1.9c0,0,0-0.1,0-0.1l-0.1-0.2l0,0c0,0,0,0-0.1,0
	c0,0-0.1,0-0.1-0.1c0,0-0.1-0.1-0.1-0.2c0,0.1,0.1,0.1,0.1,0.2c0,0,0.1,0,0.1,0.1c0,0,0,0,0.1,0l0,0l0,0l0,0l-0.3-0.5
	c0-0.1-0.1-0.3-0.2-0.4c0.1,0.1,0.1,0.2,0.2,0.3v0l-0.2-0.3l0,0L30,29.6c-0.1-0.1-0.2-0.2-0.2-0.3c0.1,0.1,0.1,0.2,0.2,0.3l0,0l0,0
	l0,0l0,0c-0.1-0.7-0.3-1.3-0.4-2c0-0.9,0-1.8,0-2.7c0,0-0.1,0-0.1,0c0,0,0.1,0,0.1,0c0-0.2,0-0.3-0.1-0.4c0-0.1,0-0.2,0-0.3
	c0-0.5-0.1-1-0.5-1.3c0-0.3-0.1-0.5-0.4-0.7L28.4,22l-0.2-0.2l0,0c-0.1-0.1-0.1-0.1-0.2-0.2l0,0c-0.1-0.2-0.3-0.3-0.5-0.4
	c-0.1-0.1-0.2-0.2-0.3-0.2c-1.3-0.8-3-0.7-4.2,0.2l0,0c-0.2,0.1-0.4,0.2-0.5,0.4l0,0c-0.1,0-0.2,0.1-0.2,0.2l0-0.1
	c-0.2,0.1-0.3,0.2-0.4,0.4l0.1,0c-0.1,0-0.2,0.1-0.2,0.2l0,0c-0.1,0.1-0.1,0.1-0.2,0.2l0,0c-0.1,0-0.2,0.1-0.2,0.2c0,0,0,0.1,0,0.1
	c0,0,0,0,0,0c-0.2,0.2-0.3,0.4-0.4,0.7l0,0c-0.3,0.7-0.4,1.4-0.3,2.2c0.3,2.4,2.4,4.1,4.8,3.8c0.2,0,0.3,0,0.5-0.1
	c1.6-0.4,2.2-0.1,2.8,1.3c0,0.3-0.1,0.7-0.1,1c0,0,0,0.1,0,0.1v0l-0.7,0.7C27,33,25.7,33.1,24.4,33c-1.2-0.2-2.4-0.5-3.4-1.1l0,0
	l-0.2-0.2h0c0,0,0,0-0.1,0c-0.1,0-0.2-0.1-0.3-0.1c0.1,0.1,0.2,0.1,0.3,0.1c0,0,0,0,0.1,0l0,0l0,0h0c-0.2-0.1-0.3-0.2-0.5-0.4
	l-0.2-0.1L20,31.1l0,0l-0.3-0.2c-0.1-0.1-0.2-0.2-0.3-0.3c0-0.1-0.1-0.1-0.1-0.2L19,30.1l0,0L18.8,30l0,0c0,0,0,0-0.1,0
	c-0.1,0-0.2-0.1-0.2-0.2c0,0.1,0.1,0.2,0.2,0.2c0,0,0,0,0.1,0c0,0,0,0,0,0l0,0l0,0c-0.1-0.2-0.2-0.3-0.4-0.5l0,0l-0.1-0.2l0,0
	L18.2,29l0,0L18,28.8c-0.6-1.3-0.8-2.8-0.8-4.2c0-0.4,0.2-0.7,0.1-1l0-0.5c0.1,0,0.2-0.2,0.2-0.4c0,0,0,0,0,0c0,0,0,0,0-0.1
	c0,0,0,0,0,0c0.1-0.1,0.2-0.3,0.2-0.4l0,0l0,0l0.1-0.2c0.1-0.1,0.2-0.3,0.2-0.5c0.1,0,0.2-0.1,0.1-0.2c0,0,0-0.1,0-0.1
	c0.2-0.1,0.4-0.3,0.3-0.5c0.1,0,0.2-0.1,0.1-0.2c0.4-0.4,0.8-0.8,1.2-1.2c2.9-2.7,7.3-2.8,10.4-0.3c1.8,1.4,2.8,3.5,3,5.8
	c-0.1,1.2-0.1,2.3,0.1,3.5c0.5,1.2,1.9,1.7,3.1,1.2c0.3-0.2,0.6-0.4,0.9-0.7c0.2-0.3,0.4-0.6,0.3-1c0-1.2,0-2.5,0-3.7
	c0-0.7-0.1-1.4-0.4-2l0,0c0-0.4-0.1-0.7-0.4-1c0,0,0-0.1,0-0.1c0-0.2,0-0.3-0.1-0.4c-0.1-0.3-0.2-0.6-0.3-0.8
	c-0.7-1.5-1.7-2.7-2.9-3.8c0-0.2-0.2-0.2-0.3-0.2c0-0.2-0.2-0.3-0.3-0.4c0,0-0.1-0.1-0.1-0.1C32.6,15,32.5,15,32.3,15
	c-0.1-0.1-0.1-0.1-0.2-0.2c0,0,0,0,0,0c-0.6-0.6-1.4-1-2.2-1.1c0,0-0.1,0-0.1,0c-0.6-0.4-1.3-0.6-2-0.6c-0.1,0-0.2,0-0.3,0
	c-0.1-0.2-0.3-0.2-0.4-0.2c-1.4-0.2-2.8-0.2-4.1,0.1c-0.2,0-0.3,0-0.4,0.1L22.2,13c-1.7,0.3-3.2,1.1-4.5,2.3c-0.2,0-0.4,0.1-0.5,0.3
	l0,0l-0.2,0.2l-0.1,0.1l-0.2,0.2l-0.3,0.3c-0.1,0.1-0.1,0.2-0.2,0.2L16,16.8L15.8,17l0,0c-0.1,0.1-0.1,0.1-0.2,0.2l0,0
	c-0.2,0.1-0.4,0.3-0.4,0.5l-0.1,0.1L15,18l0,0.1l-0.2,0.3l0,0c-0.1,0-0.2,0.1-0.2,0.2l-0.2,0.3c-0.2,0.1-0.2,0.3-0.3,0.5
	c0,0,0,0.1,0,0.1L14,19.7c0,0,0,0.1,0,0.1c-0.2,0.2-0.3,0.4-0.3,0.7c0,0,0,0.1,0,0.1l-0.1,0.2l0,0.3c-0.6,1.7-0.8,3.5-0.6,5.2
	c0.2,4.4,3.6,8.8,8.2,10.5c2.8,1,5.9,1,8.7-0.1c1.4-0.6,2.1-0.3,2.8,1c0.1,0.2,0.1,0.3,0.1,0.5c0-0.2-0.1-0.3-0.1-0.5
	c0.1,1.2-0.2,1.8-1.2,2.2c-3,1.3-6.4,1.6-9.6,0.9c-1.3-0.3-2.5-0.9-3.8-1.2c-0.1-0.2-0.2-0.1-0.3-0.2c-0.1-0.2-0.2-0.1-0.3-0.2
	c0.1,0.1,0.2,0.1,0.3,0.2h0c-0.1-0.1-0.2-0.1-0.3-0.2c-4.5-2.9-7.4-6.9-8-12.4c-0.4-3.2,0.3-6.5,1.8-9.3c0-0.1,0-0.2,0-0.2l0,0
	c0.3-0.3,0.6-0.7,0.7-1.2c0.4-0.2,0.5-0.7,0.8-1c0.1-0.1,0.2-0.2,0.2-0.3c0.3,0,0.3-0.2,0.5-0.4c5.9-6.6,15.9-7.1,22.5-1.3
	c0.7,0.7,1.4,1.4,2,2.2c0.1,0.1,0.2,0.2,0.2,0.2h0c1.5,2.1,2.5,4.6,2.9,7.2c0.3,2.1,0.3,4.2,0,6.3C41,29.1,41.1,29.2,41.1,29.3z"/>
</svg>
