<?xml version="1.0" encoding="utf-8"?>
<!-- Generator: Adobe Illustrator 24.2.3, SVG Export Plug-In . SVG Version: 6.00 Build 0)  -->
<svg version="1.1" id="Layer_2_1_" xmlns="http://www.w3.org/2000/svg" xmlns:xlink="http://www.w3.org/1999/xlink" x="0px" y="0px"
	 viewBox="0 0 100 100" style="enable-background:new 0 0 100 100;" xml:space="preserve">
<style type="text/css">
	.st0{fill:#666666;stroke:#666666;stroke-miterlimit:10;}
	.st1{fill:#666666;}
</style>
<g>
	<path class="st0" d="M93.44,28.39H70.81V7.04c0-0.55-0.45-1-1-1H31.4c-0.55,0-1,0.45-1,1v21.35h-0.44H6.33c-0.55,0-1,0.45-1,1
		v52.58c0,0.55,0.45,1,1,1h4.4c-0.32,0.89-0.5,1.85-0.5,2.86l-0.02,6.99c0,0.27,0.1,0.52,0.29,0.71s0.44,0.29,0.71,0.29h13.01
		c0.16,0,0.3-0.05,0.44-0.11h15.7c0.16,0,0.31-0.05,0.45-0.12c0.05,0.01,0.11,0.03,0.16,0.03h17.95c0.06,0,0.11-0.02,0.17-0.03
		c0.14,0.07,0.29,0.12,0.45,0.12h15.7c0.14,0.07,0.28,0.11,0.44,0.11H88.7c0.27,0,0.52-0.11,0.71-0.29s0.29-0.44,0.29-0.71
		l-0.02-6.99c0-1.01-0.18-1.97-0.5-2.86h4.27c0.55,0,1-0.45,1-1V29.39C94.44,28.84,94,28.39,93.44,28.39z M62.9,69.51
		c0-2.5,2.04-4.54,4.54-4.54c0.54,0,1.05,0.11,1.52,0.28c0.17,0.29,0.48,0.5,0.85,0.5c0.05,0,0.08-0.02,0.13-0.03
		c1.23,0.81,2.04,2.2,2.04,3.78c0,2.5-2.04,4.54-4.54,4.54S62.9,72.02,62.9,69.51z M32.4,8.04h36.41v55.08
		c-0.44-0.09-0.9-0.15-1.37-0.15c-3.61,0-6.54,2.93-6.54,6.54c0,2.52,1.44,4.71,3.53,5.8c-2.16,0.84-3.93,2.54-4.94,4.73
		c-0.86-3.23-3.12-5.82-6.02-7.01c2.22-1.24,3.72-3.61,3.72-6.33c0-4-3.25-7.25-7.25-7.25s-7.25,3.25-7.25,7.25
		c0,2.72,1.5,5.09,3.72,6.33c-2.9,1.18-5.16,3.78-6.02,7c-1.01-2.18-2.78-3.88-4.93-4.71c2.1-1.09,3.53-3.28,3.53-5.8
		c0-3.61-2.93-6.54-6.54-6.54c-0.02,0-0.04,0-0.06,0V8.04H32.4z M44.7,66.7c0-2.89,2.35-5.25,5.25-5.25c2.89,0,5.25,2.36,5.25,5.25
		s-2.36,5.25-5.25,5.25S44.7,69.59,44.7,66.7z M31.23,65.17c0.06,0.01,0.11,0.03,0.17,0.03c0.2,0,0.37-0.07,0.53-0.17
		c0.18-0.02,0.35-0.05,0.53-0.05c2.5,0,4.54,2.04,4.54,4.54s-2.04,4.54-4.54,4.54s-4.54-2.04-4.54-4.54
		C27.92,67.44,29.33,65.71,31.23,65.17z M11.78,80.97H7.33V30.39h22.63h0.44v32.92c-2.6,0.87-4.48,3.32-4.48,6.2
		c0,2.52,1.44,4.71,3.53,5.8c-2.62,1.01-4.67,3.31-5.48,6.18c-0.82-1.34-2-2.41-3.4-3.03c1.8-1.01,3.02-2.93,3.02-5.14
		c0-3.25-2.64-5.89-5.89-5.89s-5.89,2.64-5.89,5.89c0,2.2,1.22,4.13,3.02,5.14C13.62,79,12.57,79.88,11.78,80.97L11.78,80.97z
		 M17.71,77.21c-2.14,0-3.89-1.74-3.89-3.89s1.74-3.89,3.89-3.89s3.89,1.75,3.89,3.89S19.85,77.21,17.71,77.21z M12.2,91.83
		l0.02-5.99c0-3.3,2.46-5.99,5.48-5.99s5.48,2.69,5.48,6l0.02,5.99h-11V91.83z M25.57,91.71l0.03-7.49c0-4.13,3.08-7.49,6.86-7.49
		s6.86,3.36,6.86,7.49l0.03,7.48L25.57,91.71L25.57,91.71z M41.97,91.62L42,82.97c0-4.77,3.56-8.65,7.94-8.65s7.94,3.88,7.94,8.65
		l0.03,8.65H41.97z M60.55,91.71l0.03-7.49c0-4.13,3.08-7.49,6.86-7.49s6.86,3.36,6.86,7.49l0.03,7.48L60.55,91.71L60.55,91.71z
		 M76.69,91.83l0.02-5.99c0-3.3,2.46-5.99,5.48-5.99s5.48,2.69,5.48,6l0.02,5.99h-11V91.83z M82.19,77.21
		c-2.14,0-3.89-1.74-3.89-3.89s1.74-3.89,3.89-3.89s3.89,1.75,3.89,3.89S84.34,77.21,82.19,77.21z M92.44,80.97h-4.33
		c-0.79-1.1-1.84-1.97-3.05-2.51c1.8-1.01,3.02-2.93,3.02-5.14c0-3.25-2.64-5.89-5.89-5.89s-5.89,2.64-5.89,5.89
		c0,2.2,1.22,4.13,3.02,5.14c-1.4,0.62-2.58,1.69-3.4,3.03c-0.81-2.87-2.86-5.16-5.48-6.18c2.1-1.09,3.53-3.28,3.53-5.8
		c0-2.37-1.27-4.45-3.17-5.59V30.39h21.63v50.58H92.44z"/>
	<rect x="84.65" y="38.4" class="st0" width="2.15" height="26.36"/>
	<rect x="76.23" y="38.4" class="st0" width="2.15" height="26.36"/>
	<rect x="13.1" y="38.4" class="st0" width="2.15" height="26.36"/>
	<rect x="21.52" y="38.4" class="st0" width="2.15" height="26.36"/>
	<path class="st0" d="M40.1,25.97h19.8c0.55,0,1-0.45,1-1V12.78c0-0.55-0.45-1-1-1H40.1c-0.55,0-1,0.45-1,1v12.19
		C39.1,25.52,39.55,25.97,40.1,25.97z M41.1,13.78h17.8v10.19H41.1V13.78z"/>
	<rect x="60.12" y="34.57" class="st1" width="3.85" height="3.85"/>
	<rect x="54.27" y="28.67" class="st1" width="3.85" height="3.85"/>
	<rect x="54.27" y="34.57" class="st1" width="3.85" height="3.85"/>
	<rect x="54.27" y="40.6" class="st1" width="3.85" height="3.85"/>
	<rect x="54.27" y="46.5" class="st1" width="3.85" height="3.85"/>
	<rect x="60.12" y="40.6" class="st1" width="3.85" height="3.85"/>
	<rect x="60.12" y="46.5" class="st1" width="3.85" height="3.85"/>
	<rect x="54.27" y="52.62" class="st1" width="3.85" height="3.85"/>
	<rect x="48.12" y="28.67" class="st1" width="3.85" height="3.85"/>
	<rect x="48.12" y="34.57" class="st1" width="3.85" height="3.85"/>
	<rect x="48.12" y="40.6" class="st1" width="3.85" height="3.85"/>
	<rect x="48.12" y="46.5" class="st1" width="3.85" height="3.85"/>
	<rect x="48.12" y="52.62" class="st1" width="3.85" height="3.85"/>
	<rect x="41.97" y="28.67" class="st1" width="3.85" height="3.85"/>
	<rect x="41.97" y="34.57" class="st1" width="3.85" height="3.85"/>
	<rect x="41.97" y="40.6" class="st1" width="3.85" height="3.85"/>
	<rect x="41.97" y="46.5" class="st1" width="3.85" height="3.85"/>
	<rect x="41.97" y="52.62" class="st1" width="3.85" height="3.85"/>
	<rect x="60.12" y="52.62" class="st1" width="3.85" height="3.85"/>
	<rect x="36.12" y="34.57" class="st1" width="3.85" height="3.85"/>
	<rect x="36.12" y="40.6" class="st1" width="3.85" height="3.85"/>
	<rect x="36.12" y="46.5" class="st1" width="3.85" height="3.85"/>
	<rect x="36.12" y="52.62" class="st1" width="3.85" height="3.85"/>
</g>
</svg>
