<?xml version="1.0" encoding="utf-8"?>
<!-- Generator: Adobe Illustrator 23.1.0, SVG Export Plug-In . SVG Version: 6.00 Build 0)  -->
<svg version="1.1" id="Layer_3" xmlns="http://www.w3.org/2000/svg" xmlns:xlink="http://www.w3.org/1999/xlink" x="0px" y="0px"
	 viewBox="0 0 100 100" style="enable-background:new 0 0 100 100;" xml:space="preserve">
<style type="text/css">
	.st0{fill:#FFFFFF;}
</style>
<g>
	<path class="st0" d="M50,11.3c22.3,0,40.1,17.9,40.1,40.2c-0.1,22.2-17.9,40-40.1,40c-22.3,0-40.1-17.9-40.1-40.2
		C10,29.1,27.8,11.3,50,11.3z M50,88.3c20.4,0,36.9-16.5,36.9-36.8c0-20.4-16.4-37-36.7-37c-20.6,0-37.1,16.4-37.1,36.8
		C13.1,71.9,29.5,88.3,50,88.3z"/>
	<path class="st0" d="M56.3,60c0,4.2,0,8.3,0,12.5c0,3.8-2.6,6.5-6.2,6.5c-3.6,0-6.3-2.7-6.3-6.5c0-8.4,0-16.8,0-25.2
		c0-3.7,2.9-6.6,6.3-6.5c3.4,0.1,6.1,2.9,6.2,6.4C56.3,51.5,56.3,55.8,56.3,60z M53.2,60.1c0-4,0-8.1,0-12.1c0-2.4-1.3-3.9-3.1-3.9
		c-1.9,0-3.2,1.5-3.2,3.8c0,8,0,16,0,24c0,2.6,1.1,3.9,3.2,3.9c2,0,3-1.4,3.1-3.9C53.2,68,53.2,64,53.2,60.1z"/>
	<path class="st0" d="M57.2,31c0,4.1-3.1,7.3-7.2,7.3s-7.2-3.1-7.2-7.2s3.1-7.2,7.2-7.2C54.1,23.8,57.2,26.9,57.2,31z M50,27
		c-2.3,0-4.1,1.8-4.1,4.1c0,2.1,1.9,4,4,4c2.2,0.1,4.2-1.9,4.2-4.1C54.1,28.8,52.3,27,50,27z"/>
</g>
</svg>
