<?xml version="1.0" encoding="utf-8"?>
<!-- Generator: Adobe Illustrator 24.2.3, SVG Export Plug-In . SVG Version: 6.00 Build 0)  -->
<svg version="1.1" id="Layer_2" xmlns="http://www.w3.org/2000/svg" xmlns:xlink="http://www.w3.org/1999/xlink" x="0px" y="0px"
	 viewBox="0 0 88.67 68.51" style="enable-background:new 0 0 88.67 68.51;" xml:space="preserve">
<style type="text/css">
	.st0{fill:none;stroke:#666666;stroke-width:2.5;stroke-linecap:round;stroke-linejoin:round;stroke-miterlimit:10;}
</style>
<g>
	<path class="st0" d="M80.8,41.02c0.15-17.12,0.39-39.21,0.39-39.21s-19.58-1.12-23.92,0S44.91,4.04,44.33,14.57"/>
	<path class="st0" d="M1.74,9.99v54.04c0,0,19.84-0.5,33.09,2.35c3.59,0.62,4.34,1.98,8.3-1.24s15.37-9.05,37.55-6.69
		c0-2.54,0.03-7,0.07-12.35"/>
	<path class="st0" d="M86.93,9.99v54.04c0,0-19.84-0.5-33.09,2.35c-3.59,0.62-4.34,1.98-8.3-1.24s-15.37-9.05-37.55-6.69
		c0-10.81-0.5-56.64-0.5-56.64s19.58-1.12,23.92,0s12.35,2.23,12.93,12.77"/>
	<path class="st0" d="M49.46,15.32c0,0,3.47-2.48,9.05-2.73s15.37,0,15.37,0"/>
	<path class="st0" d="M49.46,22.45c0,0,3.47-2.48,9.05-2.73s15.37,0,15.37,0"/>
	<path class="st0" d="M49.46,29.58c0,0,3.47-2.48,9.05-2.73s15.37,0,15.37,0"/>
	<path class="st0" d="M49.46,36.72c0,0,3.47-2.48,9.05-2.73s15.37,0,15.37,0"/>
	<path class="st0" d="M49.46,43.85c0,0,3.47-2.48,9.05-2.73s15.37,0,15.37,0"/>
	<path class="st0" d="M49.46,50.99c0,0,3.47-2.48,9.05-2.73s15.37,0,15.37,0"/>
	<path class="st0" d="M39.21,15.32c0,0-3.47-2.48-9.05-2.73s-15.37,0-15.37,0"/>
	<path class="st0" d="M39.21,22.45c0,0-3.47-2.48-9.05-2.73s-15.37,0-15.37,0"/>
	<path class="st0" d="M39.21,29.58c0,0-3.47-2.48-9.05-2.73s-15.37,0-15.37,0"/>
	<path class="st0" d="M39.21,36.72c0,0-3.47-2.48-9.05-2.73s-15.37,0-15.37,0"/>
	<path class="st0" d="M39.21,43.85c0,0-3.47-2.48-9.05-2.73s-15.37,0-15.37,0"/>
	<path class="st0" d="M39.21,50.99c0,0-3.47-2.48-9.05-2.73s-15.37,0-15.37,0"/>
	<line class="st0" x1="44.39" y1="21.02" x2="44.39" y2="64.25"/>
</g>
</svg>
