<?xml version="1.0" encoding="utf-8"?>
<!-- Generator: Adobe Illustrator 23.1.0, SVG Export Plug-In . SVG Version: 6.00 Build 0)  -->
<svg version="1.1" id="Layer_2" xmlns="http://www.w3.org/2000/svg" xmlns:xlink="http://www.w3.org/1999/xlink" x="0px" y="0px"
	 viewBox="0 0 88.7 68.5" style="enable-background:new 0 0 88.7 68.5;" xml:space="preserve">
<style type="text/css">
	.st0{fill:none;stroke:#FFFFFF;stroke-width:2.5;stroke-linecap:round;stroke-linejoin:round;stroke-miterlimit:10;}
</style>
<g>
	<path class="st0" d="M80.8,41C81,23.9,81.2,1.8,81.2,1.8s-19.6-1.1-23.9,0S44.9,4,44.3,14.6"/>
	<path class="st0" d="M1.7,10v54c0,0,19.8-0.5,33.1,2.3c3.6,0.6,4.3,2,8.3-1.2s15.4-9,37.5-6.7c0-2.5,0-7,0.1-12.4"/>
	<path class="st0" d="M86.9,10v54c0,0-19.8-0.5-33.1,2.3c-3.6,0.6-4.3,2-8.3-1.2s-15.4-9-37.5-6.7C8,47.6,7.5,1.8,7.5,1.8
		s19.6-1.1,23.9,0S43.8,4,44.3,14.6"/>
	<path class="st0" d="M49.5,15.3c0,0,3.5-2.5,9-2.7s15.4,0,15.4,0"/>
	<path class="st0" d="M49.5,22.5c0,0,3.5-2.5,9-2.7s15.4,0,15.4,0"/>
	<path class="st0" d="M49.5,29.6c0,0,3.5-2.5,9-2.7s15.4,0,15.4,0"/>
	<path class="st0" d="M49.5,36.7c0,0,3.5-2.5,9-2.7s15.4,0,15.4,0"/>
	<path class="st0" d="M49.5,43.8c0,0,3.5-2.5,9-2.7s15.4,0,15.4,0"/>
	<path class="st0" d="M49.5,51c0,0,3.5-2.5,9-2.7s15.4,0,15.4,0"/>
	<path class="st0" d="M39.2,15.3c0,0-3.5-2.5-9-2.7s-15.4,0-15.4,0"/>
	<path class="st0" d="M39.2,22.5c0,0-3.5-2.5-9-2.7s-15.4,0-15.4,0"/>
	<path class="st0" d="M39.2,29.6c0,0-3.5-2.5-9-2.7s-15.4,0-15.4,0"/>
	<path class="st0" d="M39.2,36.7c0,0-3.5-2.5-9-2.7s-15.4,0-15.4,0"/>
	<path class="st0" d="M39.2,43.8c0,0-3.5-2.5-9-2.7s-15.4,0-15.4,0"/>
	<path class="st0" d="M39.2,51c0,0-3.5-2.5-9-2.7s-15.4,0-15.4,0"/>
	<line class="st0" x1="44.4" y1="21" x2="44.4" y2="64.3"/>
</g>
</svg>
