<?xml version="1.0" encoding="utf-8"?>
<!-- Generator: Adobe Illustrator 23.1.0, SVG Export Plug-In . SVG Version: 6.00 Build 0)  -->
<svg version="1.1" id="圖層_1" xmlns="http://www.w3.org/2000/svg" xmlns:xlink="http://www.w3.org/1999/xlink" x="0px" y="0px"
	 viewBox="0 0 100 100" style="enable-background:new 0 0 100 100;" xml:space="preserve">
<style type="text/css">
	.st0{fill:#FFFFFF;}
</style>
<path class="st0" d="M90.4,20.3l-39-15.2c-0.5-0.2-1.1-0.1-1.5,0.2c-0.2,0.1-0.4,0.3-0.5,0.5l-7.9,3.1c-0.8,0.3-1.2,1.3-0.9,2.1
	c0.3,0.6,0.8,1,1.5,1c0.2,0,0.4,0,0.6-0.1l6.5-2.6l-0.5,40l-36.9,14v-2c0-0.9-0.7-1.6-1.6-1.6s-1.6,0.7-1.6,1.6l0,0v4.4l0,0v11.9
	c0,0.7,0.4,1.3,1,1.5l40.7,15.7c0.2,0.1,0.4,0.1,0.6,0.1c0.2,0,0.4,0,0.6-0.1l39-16.3c0.6-0.3,1-0.8,1-1.5V21.8
	C91.4,21.1,91.1,20.5,90.4,20.3z M88.2,22.9v40.8l-8.8-3.5L79,37.5c0-0.7-0.4-1.3-1.1-1.5l-15.2-5.4c-0.8-0.3-1.8,0.1-2.1,1
	c-0.1,0.2-0.1,0.4-0.1,0.6l0.2,20.8l-8.9-3.5L52.4,9L88.2,22.9z M50.2,52.3l26.9,10.6l0,0l8.3,3.3L50.3,80.2L14.6,65.8L50.2,52.3z
	 M63.8,34.4l11.9,4.3L76.1,59l-12.1-4.8L63.8,34.4z M50.8,91.6l-39-15.1v-8.4l37.9,15.3c0.4,0.2,0.8,0.2,1.2,0l37.3-15V76L50.8,91.6
	z"/>
<path class="st0" d="M26.9,18c0.2,0,0.4,0,0.6-0.1l8.1-3.2c0.9-0.3,1.3-1.2,1.1-2c-0.3-0.9-1.2-1.4-2-1.1c-0.1,0-0.2,0.1-0.3,0.1
	l-8.1,3.2c-0.8,0.3-1.2,1.3-0.9,2.1C25.7,17.7,26.3,18.1,26.9,18L26.9,18z"/>
<path class="st0" d="M11.8,24c0.2,0,0.4,0,0.6-0.1l8.1-3.2c0.9-0.2,1.4-1.1,1.2-2s-1.1-1.4-2-1.2c-0.1,0-0.3,0.1-0.4,0.2l-8.1,3.2
	c-0.8,0.3-1.2,1.3-0.9,2.1C10.6,23.6,11.2,24,11.8,24L11.8,24L11.8,24z"/>
<path class="st0" d="M10.1,55.4c0.9,0,1.6-0.7,1.6-1.6l0,0v-8.7c0-0.9-0.7-1.6-1.6-1.6s-1.6,0.7-1.6,1.6l0,0v8.7
	C8.5,54.7,9.3,55.4,10.1,55.4z"/>
<path class="st0" d="M10.1,39.2c0.9,0,1.6-0.7,1.6-1.6l0,0v-8.7c0-0.9-0.7-1.6-1.6-1.6s-1.6,0.7-1.6,1.6l0,0v8.7
	C8.5,38.4,9.3,39.2,10.1,39.2L10.1,39.2z"/>
</svg>
