<?xml version="1.0" encoding="utf-8"?>
<!-- Generator: Adobe Illustrator 24.2.3, SVG Export Plug-In . SVG Version: 6.00 Build 0)  -->
<svg version="1.1" id="Layer_1" xmlns="http://www.w3.org/2000/svg" xmlns:xlink="http://www.w3.org/1999/xlink" x="0px" y="0px"
	 viewBox="0 0 100 100" style="enable-background:new 0 0 100 100;" xml:space="preserve">
<style type="text/css">
	<!-- .st0{fill:#9E9E9F;} -->
	.st0{fill: #000}
</style>
<g>
	<polygon class="st0" points="23.4,53.91 23.42,53.91 24.9,58.65 25.56,58.65 27.03,53.91 27.06,53.91 27.06,58.65 27.8,58.65 
		27.8,52.8 26.75,52.8 25.24,57.69 25.22,57.69 23.81,52.8 22.65,52.8 22.65,58.65 23.4,58.65 	"/>
	<path class="st0" d="M35.21,52.8l-2.01,5.85h0.83l0.58-1.85h2.13l0.58,1.85h0.83l-2.02-5.85H35.21z M34.8,56.18l0.86-2.75h0.01
		l0.86,2.75H34.8z"/>
	<rect x="43.57" y="52.8" class="st0" width="0.75" height="5.85"/>
	<path class="st0" d="M53.05,57.91c-0.12,0.09-0.25,0.15-0.41,0.19c-0.16,0.04-0.32,0.06-0.49,0.06c-0.2,0-0.39-0.04-0.55-0.12
		c-0.17-0.08-0.31-0.18-0.43-0.31c-0.12-0.13-0.21-0.28-0.27-0.45c-0.06-0.17-0.09-0.34-0.09-0.52h-0.76c0,0.28,0.06,0.55,0.17,0.79
		c0.12,0.25,0.27,0.46,0.47,0.64c0.2,0.18,0.42,0.33,0.68,0.43c0.26,0.11,0.52,0.16,0.79,0.16c0.29,0,0.56-0.04,0.81-0.11
		c0.25-0.07,0.46-0.18,0.65-0.32c0.18-0.14,0.32-0.31,0.43-0.51c0.1-0.2,0.15-0.44,0.15-0.7c0-0.25-0.05-0.48-0.16-0.68
		c-0.1-0.2-0.24-0.38-0.42-0.53c-0.18-0.15-0.38-0.28-0.61-0.38c-0.23-0.1-0.46-0.18-0.71-0.23c-0.15-0.04-0.3-0.08-0.46-0.14
		c-0.16-0.06-0.31-0.13-0.44-0.23c-0.13-0.09-0.24-0.21-0.33-0.34c-0.09-0.13-0.13-0.28-0.13-0.46c0-0.14,0.03-0.26,0.1-0.37
		c0.07-0.11,0.15-0.21,0.26-0.29c0.11-0.08,0.23-0.14,0.36-0.18c0.14-0.04,0.28-0.06,0.42-0.06c0.16,0,0.31,0.03,0.45,0.09
		c0.14,0.06,0.27,0.15,0.38,0.25c0.11,0.11,0.2,0.23,0.26,0.38c0.07,0.15,0.1,0.31,0.1,0.48h0.75c0-0.17-0.03-0.36-0.09-0.57
		c-0.06-0.21-0.16-0.41-0.31-0.6c-0.15-0.19-0.34-0.34-0.59-0.47c-0.25-0.13-0.57-0.19-0.95-0.19c-0.24,0-0.47,0.04-0.7,0.11
		c-0.23,0.08-0.43,0.18-0.6,0.32c-0.18,0.14-0.32,0.3-0.43,0.49c-0.11,0.19-0.16,0.39-0.16,0.61c0,0.24,0.05,0.46,0.15,0.66
		c0.1,0.2,0.23,0.37,0.39,0.51c0.16,0.14,0.34,0.26,0.55,0.36c0.21,0.1,0.42,0.17,0.64,0.22c0.16,0.04,0.32,0.08,0.5,0.14
		c0.18,0.06,0.34,0.14,0.49,0.23c0.15,0.1,0.27,0.22,0.37,0.35c0.1,0.14,0.15,0.3,0.15,0.49c0,0.17-0.03,0.32-0.1,0.44
		C53.26,57.72,53.17,57.83,53.05,57.91z"/>
	<path class="st0" d="M61.21,58.54c0.32,0.17,0.68,0.26,1.07,0.26c0.4,0,0.76-0.09,1.08-0.26c0.32-0.17,0.59-0.4,0.82-0.69
		c0.22-0.29,0.4-0.62,0.52-0.99c0.12-0.37,0.18-0.76,0.18-1.16c0-0.4-0.06-0.78-0.18-1.15c-0.12-0.37-0.3-0.69-0.52-0.97
		c-0.22-0.28-0.49-0.5-0.81-0.67c-0.32-0.17-0.68-0.25-1.07-0.25c-0.4,0-0.75,0.08-1.07,0.25c-0.32,0.17-0.59,0.39-0.81,0.67
		c-0.22,0.28-0.4,0.6-0.52,0.97c-0.12,0.37-0.18,0.75-0.18,1.15c0,0.4,0.06,0.79,0.18,1.16c0.12,0.37,0.29,0.7,0.52,0.99
		C60.62,58.14,60.89,58.36,61.21,58.54z M60.64,54.72c0.08-0.29,0.2-0.55,0.35-0.76c0.15-0.21,0.34-0.38,0.56-0.49
		c0.22-0.11,0.47-0.17,0.75-0.17c0.28,0,0.54,0.06,0.76,0.17c0.22,0.11,0.41,0.28,0.56,0.49c0.15,0.21,0.27,0.47,0.35,0.76
		c0.08,0.29,0.12,0.62,0.12,0.98c0,0.36-0.04,0.69-0.12,0.99c-0.08,0.3-0.19,0.56-0.35,0.77c-0.15,0.22-0.34,0.38-0.56,0.5
		c-0.22,0.12-0.47,0.18-0.76,0.18c-0.28,0-0.54-0.06-0.76-0.18c-0.22-0.12-0.41-0.29-0.56-0.5c-0.15-0.21-0.27-0.47-0.35-0.77
		c-0.08-0.3-0.12-0.63-0.12-0.99C60.52,55.34,60.56,55.01,60.64,54.72z"/>
	<polygon class="st0" points="70.48,52.8 70.48,58.65 71.23,58.65 71.23,53.95 71.26,53.95 73.87,58.65 74.77,58.65 74.77,52.8 
		74.03,52.8 74.03,57.48 74,57.48 71.4,52.8 	"/>
	<path class="st0" d="M22.27,69.36l0.09,1.04c1.49-0.12,2.67-1.22,2.97-2.62h0.24v3.6h1.04v-3.6h0.22c0.3,1.39,1.48,2.49,2.97,2.62
		l0.09-1.04c-0.94-0.08-1.71-0.73-1.98-1.58h2.11v-1.04h-3.41V63.2h-1.04v3.53h-3.4v1.04h2.09C23.98,68.63,23.22,69.28,22.27,69.36z
		"/>
	
		<rect x="23.55" y="63.9" transform="matrix(0.7542 -0.6567 0.6567 0.7542 -36.8247 31.8074)" class="st0" width="1.04" height="2.38"/>
	
		<rect x="26.88" y="64.57" transform="matrix(0.657 -0.7539 0.7539 0.657 -39.4412 43.4848)" class="st0" width="2.38" height="1.04"/>
	<path class="st0" d="M33.04,63.2l-0.86,0.07c0.03,0.4-0.09,0.79-0.35,1.09c-0.26,0.31-0.62,0.49-1.02,0.53l0.07,0.86
		c0.58-0.05,1.11-0.3,1.51-0.72h0.35v0.77h0.87v-0.77h0.59v-0.87h-1.27C33.02,63.86,33.07,63.53,33.04,63.2z"/>
	<polygon class="st0" points="33.82,66.76 33.82,65.89 31.15,65.89 31.15,66.76 32.05,66.76 32.05,67.38 31.15,67.38 31.15,68.25 
		33.82,68.25 33.82,67.38 32.92,67.38 32.92,66.76 	"/>
	<path class="st0" d="M35.07,68.34H34.2v0.09h-3.05v0.87h1.4c-0.03,0.29-0.14,0.56-0.33,0.79c-0.25,0.29-0.6,0.47-0.99,0.51
		l0.07,0.86c0.62-0.05,1.18-0.34,1.58-0.81c0.33-0.39,0.51-0.85,0.54-1.35h0.79v2.01h0.87v-2.01h0.74c0.03,0.49,0.22,0.96,0.54,1.35
		c0.4,0.47,0.96,0.76,1.58,0.81L38,70.6c-0.39-0.03-0.74-0.21-0.99-0.51c-0.19-0.23-0.31-0.5-0.33-0.79h1.44v-0.87h-3.05V68.34z"/>
	<path class="st0" d="M34.2,64.89l0.07,0.86c0.58-0.05,1.11-0.3,1.51-0.72h0.35v0.77H37v-0.77h0.59v-0.87h-1.27
		c0.11-0.31,0.15-0.64,0.12-0.97l-0.87,0.07c0.03,0.4-0.09,0.79-0.35,1.09C34.96,64.67,34.6,64.86,34.2,64.89z"/>
	<path class="st0" d="M34.03,68.36c0.55-0.04,1.05-0.3,1.4-0.72c0.22-0.26,0.37-0.56,0.44-0.88h0.45v0.78h-0.65v0.69h1.77v0h0.65
		v-1.95h-0.65v1.25h-0.26V65.9h-0.43v-0.01h-1.7v0.32l0,0c0,0.04,0,0.08,0,0.11v0.01c0,0.27-0.1,0.53-0.28,0.74
		c-0.2,0.24-0.49,0.39-0.81,0.42L34.03,68.36z"/>
	<path class="st0" d="M46.18,69.27c-0.25-0.29-0.37-0.66-0.34-1.05h1.1v-0.87h-2.11v-1.22h2.11v-0.87h-2.11v-2.04h-0.87v2.04h-0.49
		c0.15-0.58,0.07-1.17-0.23-1.67l-0.74,0.45c0.18,0.3,0.23,0.66,0.12,1.02c-0.1,0.35-0.33,0.65-0.64,0.86v-0.67h-0.81v-2.04h-0.87
		v2.04H38.9v0.87h1.41v0.38l-0.06,0c0.03,0.38-0.09,0.76-0.34,1.05c-0.25,0.29-0.6,0.48-0.99,0.51L39,68.94
		c0.49-0.04,0.94-0.23,1.31-0.55v2.92h0.87v-3.16l0.42,0.4l0.6-0.63l-1.02-0.97v-0.82h0.81v-0.05l0.39,0.63
		c0.26-0.16,0.48-0.36,0.66-0.58h0.93v1.22h-1.72v0.87h0.66c0.03,0.38-0.09,0.76-0.34,1.05c-0.25,0.29-0.6,0.47-0.98,0.51l0.07,0.86
		c0.62-0.05,1.17-0.34,1.58-0.81c0.38-0.45,0.57-1.02,0.54-1.61h0.19v3.1h0.87v-3.1h0.14c-0.03,0.59,0.16,1.16,0.54,1.61
		c0.4,0.47,0.96,0.76,1.58,0.81l0.07-0.86C46.78,69.74,46.43,69.56,46.18,69.27z"/>
	<path class="st0" d="M65.41,67.81h-8.3v1.04h2.55l-0.7,1.44h-0.52v1.04h4.96l0.16,0.28l0.91-0.51l-1.27-2.25h2.2V67.81z
		 M62.27,69.32l0.55,0.97h-2.7l0.7-1.44h2.29L62.27,69.32z"/>
	<path class="st0" d="M59.67,63.84c-0.21,0.94-1.12,1.63-2.17,1.63c-0.11,0-0.22-0.01-0.32-0.02l-0.09-0.01l-0.14,1.05l0.09,0.02
		c0.15,0.02,0.31,0.03,0.46,0.03c0.53,0,1.04-0.12,1.49-0.34v0.72h4.54v-0.64c0.4,0.16,0.84,0.26,1.3,0.26
		c0.15,0,0.31-0.01,0.46-0.03l0.09-0.02l-0.14-1.05l-0.09,0.01c-0.11,0.01-0.21,0.02-0.32,0.02c-1.09,0-2.02-0.74-2.19-1.73v-0.57
		h-2.97V63.84z M60.66,64.23h1c0.19,0.66,0.6,1.23,1.15,1.64h-3.29C60.06,65.46,60.47,64.89,60.66,64.23z"/>
	
		<rect x="68.96" y="67.47" transform="matrix(0.8876 -0.4606 0.4606 0.8876 -23.6311 39.6704)" class="st0" width="1.04" height="1.58"/>
	<path class="st0" d="M68.65,71.31v-4.06c0.29-0.43,0.58-0.89,0.84-1.36l0.01-0.02v-0.9h-1.15l0.68-0.3l-0.04-0.08
		c-0.05-0.09-0.11-0.21-0.2-0.36c-0.23-0.4-0.41-0.69-0.55-0.86l-0.04-0.05l-0.86,0.38v0.06c0,0.03,0.01,0.08,0.05,0.12
		c0.28,0.49,0.48,0.85,0.61,1.11h-1.45l0.02,0.96h1.8c-0.4,0.68-0.98,1.31-1.73,1.86l-0.04,0.03l0.02,1.31l0.14-0.1
		c0.34-0.25,0.63-0.48,0.88-0.7v2.97H68.65z"/>
	<polygon class="st0" points="74.72,70.06 72.57,70.06 72.57,66.69 74.48,66.69 74.48,65.67 72.57,65.67 72.57,63.37 71.48,63.37 
		71.48,65.67 69.7,65.67 69.7,66.69 71.48,66.69 71.48,70.06 69.33,70.06 69.33,70.99 74.72,70.99 	"/>
	<path class="st0" d="M50.76,69.69v-1.77h1.42v-0.97h-3.92v0.97h1.43v1.89l-1.74,0.17l0.2,1l0.08-0.01c0.9-0.15,2.31-0.31,4.2-0.46
		l0.08-0.01v-1.04l-0.1,0.02C51.88,69.55,51.32,69.62,50.76,69.69z"/>
	<path class="st0" d="M48,66h4.42l0.06,0.48c0.11,1.59,0.34,2.79,0.67,3.57c0.39,0.91,0.91,1.38,1.53,1.38c0.02,0,0.04,0,0.06,0
		c0.56,0,0.93-0.31,1.11-0.92c0.11-0.27,0.22-0.72,0.3-1.35l0.01-0.07l-0.07-0.02c-0.17-0.06-0.41-0.19-0.72-0.36l-0.11-0.06
		l-0.02,0.12c-0.09,0.52-0.17,0.93-0.26,1.22c-0.05,0.22-0.14,0.33-0.25,0.33c-0.21,0-0.39-0.16-0.55-0.48
		c-0.32-0.72-0.56-1.87-0.69-3.41l0-0.25c-0.01-0.09-0.02-0.15-0.03-0.2h2.58v-1h-1l0.58-0.43l-0.07-0.07
		c-0.29-0.29-0.64-0.61-1.03-0.97l-0.05-0.04l-0.78,0.53l0.08,0.07c0.38,0.34,0.68,0.65,0.9,0.91h-1.28v-0.75
		c-0.02-0.35-0.03-0.61-0.03-0.79v-0.09h-1.07v0.09c0,0.5,0.02,1.02,0.06,1.54H48V66z"/>
	<path class="st0" d="M24.87,77.25l-0.15,0.49l-0.13-0.49l-0.38-1.48h-0.44l-0.4,1.49c-0.08,0.32-0.13,0.5-0.13,0.52l-0.15-0.55
		l-0.4-1.47h-0.45l0.78,2.54h0.45l0.52-1.96l0.1,0.43l0.4,1.52h0.45l0.8-2.54h-0.42L24.87,77.25z"/>
	<path class="st0" d="M28.42,77.25l-0.15,0.49l-0.13-0.49l-0.38-1.48h-0.44l-0.4,1.49c-0.08,0.32-0.13,0.5-0.13,0.52l-0.15-0.55
		l-0.4-1.47h-0.45l0.78,2.54h0.45l0.52-1.96l0.1,0.43l0.4,1.52h0.45l0.8-2.54h-0.42L28.42,77.25z"/>
	<path class="st0" d="M31.96,77.25l-0.15,0.49l-0.13-0.49l-0.38-1.48h-0.44l-0.4,1.49c-0.08,0.32-0.13,0.5-0.13,0.52l-0.15-0.55
		l-0.4-1.47h-0.45l0.78,2.54h0.45l0.52-1.96l0.1,0.43l0.4,1.52h0.45l0.8-2.54H32.4L31.96,77.25z"/>
	<rect x="33.03" y="77.83" class="st0" width="0.49" height="0.49"/>
	<path class="st0" d="M36.93,75.72c-0.32,0-0.58,0.15-0.79,0.45c-0.05-0.14-0.13-0.25-0.26-0.33c-0.12-0.08-0.28-0.12-0.46-0.12
		c-0.17,0-0.32,0.04-0.45,0.11c-0.13,0.08-0.24,0.18-0.32,0.3v-0.36h-0.39v2.54h0.43v-1.32c0-0.23,0.02-0.41,0.07-0.53
		c0.05-0.12,0.12-0.22,0.22-0.28c0.1-0.06,0.22-0.1,0.34-0.1c0.16,0,0.27,0.05,0.34,0.14c0.07,0.1,0.11,0.24,0.11,0.43v1.65h0.43
		v-1.48c0-0.26,0.06-0.45,0.18-0.57c0.12-0.12,0.27-0.18,0.45-0.18c0.1,0,0.19,0.02,0.26,0.07c0.07,0.05,0.12,0.11,0.15,0.18
		c0.03,0.08,0.04,0.2,0.04,0.37v1.6h0.43v-1.75c0-0.29-0.07-0.51-0.2-0.65C37.38,75.79,37.19,75.72,36.93,75.72z"/>
	<path class="st0" d="M40.42,77.26v-0.58c0-0.19-0.01-0.32-0.02-0.4c-0.03-0.12-0.07-0.22-0.13-0.29c-0.06-0.08-0.16-0.14-0.3-0.19
		c-0.14-0.05-0.31-0.08-0.53-0.08c-0.22,0-0.41,0.03-0.58,0.09c-0.17,0.06-0.29,0.15-0.38,0.26c-0.09,0.11-0.15,0.26-0.19,0.44
		l0.42,0.06c0.05-0.18,0.12-0.31,0.21-0.38c0.1-0.07,0.25-0.11,0.45-0.11c0.22,0,0.38,0.05,0.49,0.15c0.08,0.07,0.12,0.2,0.12,0.37
		c0,0.02,0,0.05,0,0.11c-0.16,0.06-0.42,0.11-0.77,0.15c-0.17,0.02-0.3,0.04-0.38,0.06c-0.12,0.03-0.22,0.08-0.31,0.14
		c-0.09,0.06-0.17,0.15-0.22,0.25c-0.06,0.1-0.08,0.22-0.08,0.34c0,0.21,0.08,0.39,0.23,0.52c0.15,0.14,0.36,0.2,0.64,0.2
		c0.17,0,0.33-0.03,0.48-0.08c0.15-0.06,0.3-0.15,0.46-0.29c0.01,0.12,0.04,0.22,0.09,0.31h0.45c-0.05-0.1-0.09-0.2-0.11-0.31
		C40.43,77.91,40.42,77.66,40.42,77.26z M39.98,77.21c0,0.19-0.02,0.33-0.07,0.43c-0.06,0.13-0.16,0.23-0.29,0.3
		c-0.13,0.07-0.28,0.11-0.44,0.11c-0.17,0-0.29-0.04-0.38-0.11c-0.09-0.08-0.13-0.17-0.13-0.29c0-0.08,0.02-0.14,0.06-0.2
		c0.04-0.06,0.1-0.11,0.17-0.14c0.07-0.03,0.2-0.06,0.38-0.09c0.31-0.04,0.55-0.1,0.7-0.16V77.21z"/>
	<rect x="41.09" y="74.81" class="st0" width="0.43" height="0.5"/>
	<rect x="41.09" y="75.78" class="st0" width="0.43" height="2.54"/>
	<path class="st0" d="M43.73,76.98c-0.12-0.05-0.33-0.12-0.64-0.2c-0.21-0.06-0.34-0.09-0.38-0.11c-0.08-0.03-0.13-0.07-0.17-0.11
		c-0.04-0.04-0.05-0.1-0.05-0.15c0-0.09,0.04-0.16,0.13-0.23c0.08-0.07,0.23-0.1,0.42-0.1c0.17,0,0.3,0.04,0.39,0.11
		c0.09,0.07,0.15,0.18,0.17,0.31l0.42-0.06c-0.03-0.16-0.08-0.3-0.15-0.39c-0.07-0.1-0.18-0.18-0.33-0.23
		c-0.15-0.06-0.33-0.09-0.53-0.09c-0.13,0-0.26,0.02-0.37,0.05c-0.12,0.03-0.21,0.08-0.27,0.13c-0.09,0.06-0.16,0.14-0.21,0.24
		c-0.05,0.1-0.08,0.2-0.08,0.32c0,0.12,0.03,0.24,0.09,0.34c0.06,0.1,0.16,0.18,0.28,0.24c0.12,0.06,0.34,0.13,0.66,0.21
		c0.23,0.06,0.38,0.11,0.44,0.15c0.08,0.06,0.13,0.13,0.13,0.23c0,0.11-0.05,0.2-0.14,0.28c-0.1,0.08-0.24,0.12-0.44,0.12
		c-0.2,0-0.35-0.05-0.46-0.14c-0.11-0.09-0.18-0.22-0.2-0.39l-0.43,0.07c0.05,0.27,0.16,0.47,0.33,0.61
		c0.17,0.14,0.43,0.21,0.76,0.21c0.2,0,0.38-0.03,0.54-0.1s0.28-0.17,0.36-0.29c0.08-0.13,0.13-0.26,0.13-0.41
		c0-0.15-0.03-0.27-0.1-0.37C43.95,77.11,43.85,77.04,43.73,76.98z"/>
	<path class="st0" d="M45.67,75.72c-0.31,0-0.58,0.09-0.8,0.28c-0.26,0.23-0.39,0.58-0.39,1.05c0,0.43,0.11,0.76,0.33,0.99
		c0.22,0.23,0.51,0.34,0.86,0.34c0.22,0,0.43-0.05,0.61-0.16c0.19-0.1,0.33-0.25,0.43-0.44c0.1-0.19,0.15-0.45,0.15-0.77
		c0-0.4-0.11-0.72-0.33-0.95C46.3,75.84,46.01,75.72,45.67,75.72z M46.2,77.78c-0.14,0.16-0.32,0.24-0.53,0.24
		c-0.22,0-0.39-0.08-0.54-0.24c-0.14-0.16-0.21-0.41-0.21-0.73c0-0.33,0.07-0.57,0.21-0.73c0.14-0.16,0.32-0.24,0.54-0.24
		c0.21,0,0.39,0.08,0.53,0.24c0.14,0.16,0.21,0.4,0.21,0.72C46.41,77.37,46.34,77.62,46.2,77.78z"/>
	<path class="st0" d="M49.27,76.02c-0.06-0.09-0.16-0.16-0.29-0.22c-0.13-0.06-0.27-0.08-0.42-0.08c-0.35,0-0.62,0.14-0.81,0.42
		v-0.36h-0.39v2.54h0.43v-1.39c0-0.33,0.07-0.55,0.2-0.66c0.13-0.12,0.29-0.17,0.48-0.17c0.12,0,0.22,0.03,0.3,0.08
		c0.09,0.05,0.14,0.12,0.18,0.21C48.98,76.47,49,76.6,49,76.78v1.55h0.43v-1.56c0-0.2-0.01-0.34-0.02-0.42
		C49.38,76.22,49.34,76.11,49.27,76.02z"/>
	<path class="st0" d="M52.01,76.08c-0.09-0.11-0.21-0.2-0.34-0.27c-0.14-0.06-0.29-0.09-0.44-0.09c-0.28,0-0.52,0.11-0.7,0.34v-1.25
		h-0.43v3.51h0.4v-0.32c0.17,0.25,0.41,0.38,0.71,0.38c0.3,0,0.56-0.12,0.78-0.36c0.22-0.24,0.32-0.58,0.32-1.01
		c0-0.18-0.03-0.36-0.08-0.52C52.17,76.34,52.1,76.2,52.01,76.08z M51.65,77.78c-0.14,0.16-0.3,0.25-0.49,0.25
		c-0.23,0-0.42-0.11-0.55-0.33c-0.08-0.14-0.12-0.36-0.12-0.66c0-0.31,0.07-0.55,0.21-0.71c0.14-0.16,0.3-0.25,0.49-0.25
		c0.19,0,0.35,0.08,0.48,0.24c0.13,0.16,0.2,0.4,0.2,0.74C51.85,77.38,51.79,77.62,51.65,77.78z"/>
	<path class="st0" d="M53.87,75.72c-0.35,0-0.64,0.12-0.86,0.35c-0.22,0.24-0.33,0.57-0.33,1c0,0.41,0.11,0.74,0.33,0.96
		c0.22,0.23,0.51,0.34,0.89,0.34c0.3,0,0.54-0.07,0.73-0.22c0.19-0.14,0.32-0.35,0.39-0.61l-0.45-0.06
		c-0.07,0.18-0.15,0.31-0.27,0.4c-0.11,0.08-0.25,0.12-0.4,0.12c-0.21,0-0.39-0.07-0.53-0.22c-0.14-0.15-0.22-0.36-0.24-0.64h1.9
		c0-0.05,0-0.09,0-0.11c0-0.42-0.11-0.75-0.32-0.98C54.48,75.84,54.21,75.72,53.87,75.72z M53.15,76.81
		c0.01-0.22,0.09-0.4,0.22-0.53c0.13-0.13,0.3-0.2,0.5-0.2c0.22,0,0.4,0.08,0.53,0.25c0.09,0.11,0.14,0.27,0.16,0.48H53.15z"/>
	<path class="st0" d="M57.1,76.98c-0.12-0.05-0.33-0.12-0.64-0.2c-0.21-0.06-0.34-0.09-0.38-0.11c-0.08-0.03-0.13-0.07-0.17-0.11
		c-0.04-0.04-0.05-0.1-0.05-0.15c0-0.09,0.04-0.16,0.13-0.23c0.08-0.07,0.23-0.1,0.42-0.1c0.17,0,0.3,0.04,0.39,0.11
		c0.09,0.07,0.15,0.18,0.17,0.31l0.42-0.06c-0.03-0.16-0.08-0.3-0.15-0.39c-0.07-0.1-0.18-0.18-0.33-0.23
		c-0.15-0.06-0.33-0.09-0.53-0.09c-0.13,0-0.26,0.02-0.37,0.05c-0.12,0.03-0.21,0.08-0.27,0.13c-0.09,0.06-0.16,0.14-0.21,0.24
		c-0.05,0.1-0.08,0.2-0.08,0.32c0,0.12,0.03,0.24,0.09,0.34s0.16,0.18,0.28,0.24c0.12,0.06,0.34,0.13,0.66,0.21
		c0.23,0.06,0.38,0.11,0.44,0.15c0.08,0.06,0.13,0.13,0.13,0.23c0,0.11-0.05,0.2-0.14,0.28c-0.1,0.08-0.24,0.12-0.44,0.12
		c-0.2,0-0.35-0.05-0.46-0.14c-0.11-0.09-0.18-0.22-0.2-0.39l-0.43,0.07c0.05,0.27,0.16,0.47,0.33,0.61
		c0.17,0.14,0.43,0.21,0.76,0.21c0.2,0,0.38-0.03,0.54-0.1s0.28-0.17,0.36-0.29c0.08-0.13,0.13-0.26,0.13-0.41
		c0-0.15-0.03-0.27-0.1-0.37C57.32,77.11,57.22,77.04,57.1,76.98z"/>
	<path class="st0" d="M58.76,77.96c-0.06,0-0.11-0.01-0.15-0.03c-0.03-0.02-0.06-0.05-0.07-0.08c-0.02-0.04-0.02-0.11-0.02-0.24
		v-1.49h0.43v-0.34h-0.43v-0.89l-0.43,0.26v0.63h-0.32v0.34h0.32v1.46c0,0.26,0.02,0.43,0.05,0.51c0.04,0.08,0.1,0.15,0.18,0.2
		c0.09,0.05,0.21,0.07,0.36,0.07c0.1,0,0.2-0.01,0.33-0.04l-0.06-0.38C58.87,77.95,58.8,77.96,58.76,77.96z"/>
	<rect x="59.49" y="77.83" class="st0" width="0.49" height="0.49"/>
	<path class="st0" d="M62.18,77.87c-0.11,0.1-0.25,0.16-0.42,0.16c-0.21,0-0.38-0.08-0.51-0.23c-0.13-0.16-0.2-0.4-0.2-0.75
		c0-0.34,0.07-0.58,0.2-0.74c0.14-0.16,0.31-0.23,0.53-0.23c0.14,0,0.27,0.04,0.37,0.13c0.1,0.09,0.17,0.21,0.21,0.39l0.42-0.06
		c-0.05-0.26-0.16-0.46-0.34-0.6c-0.18-0.14-0.4-0.21-0.68-0.21c-0.22,0-0.42,0.05-0.61,0.15c-0.19,0.1-0.33,0.26-0.42,0.46
		c-0.09,0.21-0.14,0.45-0.14,0.72c0,0.42,0.11,0.75,0.32,0.98c0.21,0.23,0.49,0.34,0.84,0.34c0.28,0,0.51-0.08,0.7-0.25
		c0.19-0.17,0.31-0.39,0.36-0.69l-0.42-0.06C62.36,77.61,62.29,77.77,62.18,77.87z"/>
	<path class="st0" d="M64.22,75.72c-0.31,0-0.58,0.09-0.8,0.28c-0.26,0.23-0.39,0.58-0.39,1.05c0,0.43,0.11,0.76,0.33,0.99
		c0.22,0.23,0.51,0.34,0.86,0.34c0.22,0,0.43-0.05,0.61-0.16c0.19-0.1,0.33-0.25,0.43-0.44c0.1-0.19,0.15-0.45,0.15-0.77
		c0-0.4-0.11-0.72-0.33-0.95C64.85,75.84,64.57,75.72,64.22,75.72z M64.75,77.78c-0.14,0.16-0.32,0.24-0.53,0.24
		c-0.22,0-0.39-0.08-0.54-0.24c-0.14-0.16-0.21-0.41-0.21-0.73c0-0.33,0.07-0.57,0.21-0.73c0.14-0.16,0.32-0.24,0.54-0.24
		c0.21,0,0.39,0.08,0.53,0.24c0.14,0.16,0.21,0.4,0.21,0.72C64.96,77.37,64.89,77.62,64.75,77.78z"/>
	<path class="st0" d="M68.58,75.72c-0.32,0-0.58,0.15-0.79,0.45c-0.05-0.14-0.13-0.25-0.26-0.33c-0.12-0.08-0.28-0.12-0.46-0.12
		c-0.17,0-0.32,0.04-0.45,0.11c-0.13,0.08-0.24,0.18-0.32,0.3v-0.36h-0.39v2.54h0.43v-1.32c0-0.23,0.02-0.41,0.07-0.53
		c0.05-0.12,0.12-0.22,0.22-0.28c0.1-0.06,0.22-0.1,0.34-0.1c0.16,0,0.27,0.05,0.35,0.14c0.07,0.1,0.11,0.24,0.11,0.43v1.65h0.43
		v-1.48c0-0.26,0.06-0.45,0.18-0.57c0.12-0.12,0.27-0.18,0.45-0.18c0.1,0,0.19,0.02,0.26,0.07c0.07,0.05,0.12,0.11,0.15,0.18
		c0.03,0.08,0.04,0.2,0.04,0.37v1.6h0.43v-1.75c0-0.29-0.07-0.51-0.2-0.65C69.02,75.79,68.83,75.72,68.58,75.72z"/>
	<rect x="70.12" y="77.83" class="st0" width="0.49" height="0.49"/>
	<path class="st0" d="M72.12,77.96c-0.06,0-0.11-0.01-0.15-0.03c-0.03-0.02-0.06-0.05-0.07-0.08c-0.02-0.04-0.02-0.11-0.02-0.24
		v-1.49h0.43v-0.34h-0.43v-0.89l-0.43,0.26v0.63h-0.32v0.34h0.32v1.46c0,0.26,0.02,0.43,0.05,0.51c0.03,0.08,0.1,0.15,0.18,0.2
		c0.09,0.05,0.21,0.07,0.36,0.07c0.1,0,0.2-0.01,0.33-0.04l-0.06-0.38C72.23,77.95,72.17,77.96,72.12,77.96z"/>
	<path class="st0" d="M75.05,77.25l-0.15,0.49l-0.13-0.49l-0.38-1.48h-0.44l-0.4,1.49c-0.08,0.32-0.13,0.5-0.13,0.52l-0.15-0.55
		l-0.4-1.47h-0.45l0.78,2.54h0.45l0.52-1.96l0.1,0.43l0.4,1.52h0.45l0.8-2.54h-0.42L75.05,77.25z"/>
	<path class="st0" d="M37.08,39.77c0,0.73,0.6,1.33,1.33,1.33c0.73,0,1.33-0.6,1.33-1.33s-0.6-1.33-1.33-1.33
		C37.68,38.44,37.08,39.04,37.08,39.77z M39.42,39.77c0,0.55-0.45,1-1,1c-0.55,0-1-0.45-1-1c0-0.55,0.45-1,1-1
		C38.97,38.77,39.42,39.22,39.42,39.77z"/>
	<path class="st0" d="M49.62,2.5c-12.73,0-24.69,4.96-33.69,13.95S1.98,37.42,1.98,50.15s4.96,24.69,13.95,33.69
		c9,9,20.96,13.95,33.69,13.95s24.69-4.96,33.69-13.95c9-9,13.95-20.96,13.95-33.69s-4.96-24.69-13.95-33.69
		C74.32,7.46,62.35,2.5,49.62,2.5z M82.9,83.42c-8.89,8.89-20.7,13.78-33.27,13.78c-12.57,0-24.38-4.89-33.27-13.78
		C7.47,74.53,2.57,62.72,2.57,50.15c0-12.57,4.89-24.38,13.78-33.27S37.06,3.1,49.62,3.1c12.57,0,24.38,4.89,33.27,13.78
		c8.89,8.89,13.78,20.7,13.78,33.27C96.68,62.72,91.78,74.53,82.9,83.42z"/>
	<path class="st0" d="M99.99,56.63c-0.14-0.68-0.23-1.41-0.32-2.19c-0.16-1.37-0.34-2.92-0.87-4.43c0.31-1.54,0.11-2.95-0.08-4.31
		c-0.1-0.68-0.19-1.32-0.21-1.95l0-0.03l-0.01-0.03c-0.34-0.84-0.56-1.67-0.77-2.47c-0.32-1.22-0.65-2.49-1.43-3.79
		c-0.3-0.96-0.39-1.94-0.47-2.89c-0.11-1.22-0.21-2.37-0.74-3.41l-0.02-0.03c-1.07-1.35-1.21-2.78-1.36-4.17
		c-0.08-0.8-0.16-1.56-0.41-2.23l-0.01-0.03c-1.1-1.92-2.63-3.58-4.56-4.93c-0.94-1.26-1.9-2.22-2.91-3.22
		c-0.38-0.38-0.78-0.77-1.18-1.19L84.6,15.3c-0.8-0.63-1.47-1.33-2.17-2.08c-0.8-0.85-1.63-1.74-2.73-2.56
		c-0.81-0.82-2.08-1.3-3.43-1.8c-0.78-0.29-1.59-0.6-2.29-0.97c-0.86-0.49-1.5-1.11-2.13-1.7c-0.76-0.73-1.47-1.41-2.45-1.71
		c-2.22-1.24-4.44-2.04-6.98-2.51c-1.01-0.39-2.17-0.37-3.29-0.36c-0.92,0.01-1.79,0.02-2.45-0.2l-0.05-0.01
		c-1.63-0.07-3.08-0.31-4.35-0.52c-0.85-0.14-1.59-0.26-2.24-0.31l-0.01,0l-0.01,0c-1.56,0.13-2.93,0.32-4.26,0.51
		c-1.05,0.15-2.03,0.28-3.06,0.38c-0.5,0.1-1.17,0.1-2.02,0.1c-1.25,0-2.8,0.01-4.63,0.33L36,1.89l-0.03,0.02
		c-0.94,0.54-2.11,1.01-3.24,1.46c-0.8,0.32-1.55,0.62-2.15,0.92c-0.87,0.47-1.88,0.81-2.95,1.17c-1.11,0.37-2.26,0.76-3.33,1.32
		c-1.65,0.88-3.01,2.07-4.22,3.12c-0.28,0.24-0.54,0.47-0.8,0.69c-2.22,1.16-3.62,2.91-4.6,4.31c-1.66,1.23-3.04,2.7-4.22,4.49
		c-1.31,1.13-1.58,2.38-1.83,3.59c-0.19,0.91-0.37,1.76-0.99,2.53l-0.03,0.05c-0.39,0.95-1.32,1.78-2.3,2.66
		c-0.79,0.7-1.6,1.43-2.28,2.31l-0.04,0.05l0,0.06c-0.07,1.88-0.5,4.62-1.5,6.66l-0.01,0.03c-0.37,1.31-0.32,2.69-0.27,4.15
		c0.02,0.69,0.05,1.41,0.02,2.13c0.03,1.22-0.27,2.33-0.6,3.51C0.36,48.08,0.09,49.07,0,50.15c-0.02,0.92,0.04,1.83,0.1,2.71
		c0.09,1.35,0.18,2.62-0.02,3.91l0,0.02l0,0.02C0.21,58.98,1,61.2,1.84,63.27l0.01,0.03c1.49,2.4,2.3,4.28,2.48,5.72l0,0.04
		l0.02,0.03c0.69,1.2,0.95,2.48,1.2,3.73c0.17,0.84,0.34,1.64,0.62,2.41l0.02,0.04c0.58,0.85,1.29,1.56,1.99,2.24
		c0.9,0.88,1.75,1.72,2.23,2.79l0.03,0.05c1.47,1.64,3.2,2.97,5.02,4.36c0.12,0.23,0.24,0.48,0.37,0.74c0.7,1.44,1.57,3.22,3.71,4.4
		c0.63,0.94,1.94,1.88,3.2,2.79c0.57,0.41,1.1,0.79,1.58,1.18c0.84,0.61,2.17,1,3.57,1.42c0.9,0.26,1.83,0.54,2.62,0.88
		c0.72,0.49,1.77,0.56,2.98,0.64c1.08,0.07,2.3,0.15,3.45,0.56l0.02,0.01c0.78,0.19,1.92,0.39,3.03,0.59
		c1.03,0.18,2.09,0.37,2.8,0.54l0.03,0c1.01,0.09,1.95,0.22,2.85,0.35c1.32,0.19,2.56,0.36,3.72,0.33c0.99-0.1,2.39,0.17,3.74,0.44
		c1.17,0.23,2.28,0.45,3.18,0.45c0.08,0,0.16,0,0.24-0.01l0.04-0.01c0.89-0.23,1.78-0.56,2.73-0.92c0.98-0.37,2-0.75,3.14-1.07
		c1.91-0.52,3.11-1.01,4.38-1.52c0.63-0.26,1.28-0.52,2.05-0.8c0.92-0.37,1.71-0.62,2.55-0.89c1.15-0.37,2.34-0.74,3.96-1.47
		c0.94-0.52,1.55-1.23,2.13-1.93c0.55-0.66,1.08-1.28,1.87-1.73c0.66-0.42,1.35-0.8,2.03-1.17c1.45-0.8,2.95-1.62,4.25-2.86
		l0.03-0.03c0.95-1.41,2.06-3.04,3.27-4.53c1.02-1.19,1.3-2.77,1.54-4.16c0.15-0.88,0.3-1.7,0.61-2.36
		c1.22-1.78,2.37-3.34,3.98-5.36l0.03-0.03l0.01-0.04c0.17-0.85,0.84-1.72,1.55-2.65c0.72-0.94,1.46-1.91,1.7-2.93
		c0.31-2.11,1.02-4.72,1.6-6.82l0.01-0.04L99.99,56.63z M98.03,63.46c-0.22,0.92-0.94,1.86-1.64,2.77
		c-0.72,0.95-1.41,1.84-1.61,2.75c-1.61,2.02-2.76,3.58-3.98,5.36l-0.01,0.03c-0.33,0.71-0.48,1.56-0.64,2.47
		c-0.25,1.41-0.5,2.86-1.46,3.98c-1.22,1.5-2.34,3.13-3.28,4.55c-1.26,1.2-2.73,2.01-4.16,2.79c-0.68,0.37-1.38,0.76-2.04,1.18
		c-0.84,0.48-1.41,1.16-1.96,1.81c-0.56,0.67-1.14,1.36-2.01,1.83c-1.59,0.71-2.77,1.08-3.91,1.45c-0.84,0.27-1.64,0.52-2.57,0.89
		c-0.78,0.28-1.43,0.55-2.06,0.81c-1.26,0.51-2.45,1-4.34,1.51c-1.16,0.32-2.18,0.7-3.17,1.08c-0.93,0.35-1.81,0.68-2.67,0.9
		c-0.88,0.04-2.12-0.2-3.31-0.44c-1.17-0.23-2.38-0.47-3.34-0.47c-0.17,0-0.34,0.01-0.49,0.02c-1.11,0.03-2.34-0.14-3.64-0.33
		c-0.91-0.13-1.84-0.26-2.86-0.35c-0.72-0.17-1.73-0.35-2.81-0.54c-1.09-0.19-2.23-0.4-3-0.58c-1.2-0.43-2.44-0.51-3.54-0.58
		c-1.16-0.08-2.17-0.14-2.8-0.58l-0.03-0.02c-0.82-0.35-1.76-0.63-2.68-0.9c-1.37-0.4-2.67-0.79-3.45-1.36
		c-0.48-0.39-1.05-0.79-1.59-1.19c-1.25-0.9-2.54-1.83-3.13-2.73l-0.03-0.04l-0.04-0.02c-2.07-1.12-2.92-2.86-3.6-4.26
		c-0.14-0.28-0.26-0.54-0.4-0.79l-0.02-0.04l-0.03-0.02c-1.81-1.39-3.52-2.7-4.98-4.32c-0.51-1.12-1.37-1.97-2.29-2.88
		c-0.68-0.66-1.37-1.35-1.93-2.16c-0.27-0.73-0.43-1.51-0.6-2.33c-0.26-1.26-0.52-2.56-1.23-3.8c-0.19-1.49-1.02-3.4-2.51-5.82
		c-0.82-2.03-1.6-4.2-1.72-6.3c0.2-1.32,0.11-2.67,0.02-3.97c-0.06-0.87-0.12-1.78-0.1-2.67c0.08-1.03,0.35-2.01,0.61-2.95
		c0.32-1.15,0.65-2.35,0.61-3.61c0.02-0.72,0-1.45-0.02-2.15c-0.05-1.43-0.09-2.78,0.25-4.02c1.01-2.07,1.45-4.82,1.53-6.74
		c0.65-0.84,1.43-1.54,2.19-2.22c1.01-0.9,1.97-1.75,2.39-2.77c0.66-0.83,0.86-1.76,1.05-2.66c0.24-1.15,0.5-2.35,1.73-3.4
		l0.03-0.04c1.17-1.77,2.53-3.22,4.17-4.43l0.04-0.04c0.96-1.37,2.34-3.1,4.51-4.23l0.03-0.02c0.26-0.22,0.54-0.46,0.82-0.71
		c1.19-1.04,2.54-2.21,4.15-3.07c1.04-0.55,2.18-0.93,3.27-1.29c1.09-0.36,2.11-0.71,3-1.19c0.58-0.29,1.33-0.59,2.12-0.91
		c1.13-0.45,2.3-0.92,3.26-1.46c1.78-0.32,3.3-0.32,4.53-0.32c0.87,0,1.55,0,2.07-0.11c1.02-0.1,2.01-0.24,3.06-0.38
		c1.32-0.18,2.69-0.38,4.23-0.5c0.63,0.05,1.36,0.17,2.19,0.3c1.28,0.21,2.73,0.45,4.37,0.52c0.71,0.24,1.6,0.23,2.55,0.22
		c1.09-0.01,2.22-0.02,3.17,0.34l0.03,0.01c2.54,0.48,4.67,1.24,6.9,2.49l0.04,0.02c0.9,0.27,1.56,0.9,2.32,1.63
		c0.64,0.61,1.3,1.25,2.21,1.76c0.73,0.39,1.54,0.69,2.34,0.99c1.31,0.49,2.55,0.96,3.3,1.72l0.02,0.02
		c1.08,0.81,1.9,1.68,2.69,2.53c0.71,0.76,1.38,1.47,2.21,2.11c0.41,0.42,0.8,0.81,1.18,1.19c1.01,1.01,1.97,1.95,2.89,3.21
		l0.04,0.04c1.89,1.32,3.39,2.94,4.47,4.81c0.23,0.63,0.31,1.35,0.39,2.12c0.14,1.37,0.3,2.93,1.42,4.35
		c0.49,0.97,0.59,2.08,0.69,3.26c0.09,0.98,0.17,1.99,0.5,3l0.02,0.04c0.76,1.26,1.07,2.45,1.4,3.71c0.21,0.81,0.43,1.64,0.78,2.49
		c0.03,0.64,0.12,1.28,0.21,1.96c0.19,1.35,0.39,2.74,0.08,4.23l-0.01,0.05l0.02,0.05c0.53,1.48,0.7,2.96,0.87,4.4
		c0.09,0.77,0.18,1.49,0.31,2.17C99.04,58.76,98.34,61.36,98.03,63.46z"/>
	<path class="st0" d="M34.45,34.67h5.66v11h32.91V32.38h-0.42v12.87H40.53v-11h-6.51v10.98h-5.23v-14.3l19.57-11.47h1.51L70.86,31.5
		v11.3H51.16v-8.66h6.13l0.08,5.41h6.8v-5.83H50.73v9.51h20.55V31.26L50.03,19.07l-0.05-0.03h-1.74L28.37,30.69v14.97h6.08V34.67z
		 M63.73,34.15v4.99h-5.96l-0.07-4.99H63.73z"/>
</g>
</svg>
