<?xml version="1.0" encoding="utf-8"?>
<!-- Generator: Adobe Illustrator 23.1.0, SVG Export Plug-In . SVG Version: 6.00 Build 0)  -->
<svg version="1.1" id="Layer_2" xmlns="http://www.w3.org/2000/svg" xmlns:xlink="http://www.w3.org/1999/xlink" x="0px" y="0px"
	 viewBox="0 0 100 100" style="enable-background:new 0 0 100 100;" xml:space="preserve">
<style type="text/css">
	.st0{fill:none;stroke:#FFFFFF;stroke-width:4;stroke-linecap:round;stroke-linejoin:round;stroke-miterlimit:10;}
</style>
<path class="st0" d="M69.7,17.9c0,0,12,0,16.7,0c4.7,0,5.8,5.9,5.8,5.9s1.6,43.3,0,55.4c-1.6,12.1-11.1,12.6-11.1,12.6
	s-50.8,0-62.2,0S7.6,76.6,7.6,76.6v-70h61.8l0.3,72c0,2.7,0.7,5.5,2.1,7.8c1.6,2.7,4.5,5.4,9.3,5.4"/>
<line class="st0" x1="19.6" y1="17.9" x2="58.4" y2="17.9"/>
<line class="st0" x1="43.4" y1="57.5" x2="58.4" y2="57.5"/>
<line class="st0" x1="19.6" y1="57.5" x2="33.3" y2="57.5"/>
<line class="st0" x1="43.4" y1="68.8" x2="58.4" y2="68.8"/>
<line class="st0" x1="19.6" y1="68.8" x2="33.3" y2="68.8"/>
<line class="st0" x1="43.4" y1="80.1" x2="58.4" y2="80.1"/>
<line class="st0" x1="70" y1="46.1" x2="82.1" y2="46.1"/>
<line class="st0" x1="70" y1="57.5" x2="82.1" y2="57.5"/>
<line class="st0" x1="70" y1="68.8" x2="82.1" y2="68.8"/>
<line class="st0" x1="69.8" y1="80.1" x2="82.1" y2="80.1"/>
<line class="st0" x1="19.6" y1="80.1" x2="33.3" y2="80.1"/>
<rect x="19" y="28.8" class="st0" width="39.5" height="17.5"/>
<path class="st0" d="M69.6,34.9h11.1V23.5c0,0-0.6-5.6,5.8-5.6"/>
</svg>
