<?xml version="1.0" encoding="utf-8"?>
<!-- Generator: Adobe Illustrator 24.2.3, SVG Export Plug-In . SVG Version: 6.00 Build 0)  -->
<svg version="1.1" id="Layer_2" xmlns="http://www.w3.org/2000/svg" xmlns:xlink="http://www.w3.org/1999/xlink" x="0px" y="0px"
	 viewBox="0 0 100 100" style="enable-background:new 0 0 100 100;" xml:space="preserve">
<style type="text/css">
	.st0{fill:none;stroke:#666666;stroke-width:4;stroke-linecap:round;stroke-linejoin:round;stroke-miterlimit:10;}
</style>
<path class="st0" d="M69.71,17.92c0,0,11.97,0,16.7,0c4.74,0,5.79,5.87,5.79,5.87s1.58,43.34,0,55.44
	c-1.58,12.11-11.1,12.63-11.1,12.63s-50.83,0-62.24,0S7.64,76.6,7.64,76.6v-70h61.81l0.25,72.03c0.01,2.74,0.67,5.47,2.08,7.81
	c1.64,2.71,4.49,5.42,9.32,5.42"/>
<line class="st0" x1="19.61" y1="17.92" x2="58.44" y2="17.92"/>
<line class="st0" x1="43.4" y1="57.46" x2="58.44" y2="57.46"/>
<line class="st0" x1="19.61" y1="57.46" x2="33.27" y2="57.46"/>
<line class="st0" x1="43.4" y1="68.79" x2="58.44" y2="68.79"/>
<line class="st0" x1="19.61" y1="68.79" x2="33.27" y2="68.79"/>
<line class="st0" x1="43.4" y1="80.12" x2="58.44" y2="80.12"/>
<line class="st0" x1="69.99" y1="46.14" x2="82.1" y2="46.14"/>
<line class="st0" x1="69.99" y1="57.46" x2="82.1" y2="57.46"/>
<line class="st0" x1="69.99" y1="68.79" x2="82.1" y2="68.79"/>
<line class="st0" x1="69.77" y1="80.08" x2="82.1" y2="80.08"/>
<line class="st0" x1="19.61" y1="80.12" x2="33.27" y2="80.12"/>
<rect x="18.95" y="28.78" class="st0" width="39.5" height="17.47"/>
<path class="st0" d="M69.55,34.88h11.09V23.51c0,0-0.62-5.59,5.77-5.59"/>
</svg>
