<?xml version="1.0" encoding="utf-8"?>
<!-- Generator: Adobe Illustrator 23.1.0, SVG Export Plug-In . SVG Version: 6.00 Build 0)  -->
<svg version="1.1" id="Layer_2_1_" xmlns="http://www.w3.org/2000/svg" xmlns:xlink="http://www.w3.org/1999/xlink" x="0px" y="0px"
	 viewBox="0 0 100 100" style="enable-background:new 0 0 100 100;" xml:space="preserve">
<style type="text/css">
	.st0{fill:#FFFFFF;stroke:#FFFFFF;stroke-miterlimit:10;}
	.st1{fill:#FFFFFF;}
</style>
<g>
	<path class="st0" d="M93.4,28.4H70.8V7c0-0.6-0.4-1-1-1H31.4c-0.5,0-1,0.4-1,1v21.3H30H6.3c-0.6,0-1,0.5-1,1V82c0,0.6,0.4,1,1,1
		h4.4c-0.3,0.9-0.5,1.8-0.5,2.9l0,7c0,0.3,0.1,0.5,0.3,0.7s0.4,0.3,0.7,0.3h13c0.2,0,0.3-0.1,0.4-0.1h15.7c0.2,0,0.3-0.1,0.5-0.1
		c0,0,0.1,0,0.2,0h18c0.1,0,0.1,0,0.2,0c0.1,0.1,0.3,0.1,0.5,0.1h15.7c0.1,0.1,0.3,0.1,0.4,0.1h13c0.3,0,0.5-0.1,0.7-0.3
		s0.3-0.4,0.3-0.7l0-7c0-1-0.2-2-0.5-2.9h4.3c0.6,0,1-0.4,1-1V29.4C94.4,28.8,94,28.4,93.4,28.4z M62.9,69.5c0-2.5,2-4.5,4.5-4.5
		c0.5,0,1.1,0.1,1.5,0.3c0.2,0.3,0.5,0.5,0.8,0.5c0.1,0,0.1,0,0.1,0c1.2,0.8,2,2.2,2,3.8c0,2.5-2,4.5-4.5,4.5S62.9,72,62.9,69.5z
		 M32.4,8h36.4v55.1C68.4,63,67.9,63,67.4,63c-3.6,0-6.5,2.9-6.5,6.5c0,2.5,1.4,4.7,3.5,5.8c-2.2,0.8-3.9,2.5-4.9,4.7
		c-0.9-3.2-3.1-5.8-6-7c2.2-1.2,3.7-3.6,3.7-6.3c0-4-3.3-7.3-7.3-7.3s-7.3,3.3-7.3,7.3c0,2.7,1.5,5.1,3.7,6.3c-2.9,1.2-5.2,3.8-6,7
		c-1-2.2-2.8-3.9-4.9-4.7c2.1-1.1,3.5-3.3,3.5-5.8c0-3.6-2.9-6.5-6.5-6.5c0,0,0,0-0.1,0L32.4,8L32.4,8z M44.7,66.7
		c0-2.9,2.3-5.3,5.3-5.3c2.9,0,5.3,2.4,5.3,5.3s-2.4,5.3-5.3,5.3S44.7,69.6,44.7,66.7z M31.2,65.2c0.1,0,0.1,0,0.2,0
		c0.2,0,0.4-0.1,0.5-0.2c0.2,0,0.3-0.1,0.5-0.1c2.5,0,4.5,2,4.5,4.5s-2,4.5-4.5,4.5s-4.5-2-4.5-4.5C27.9,67.4,29.3,65.7,31.2,65.2z
		 M11.8,81H7.3V30.4H30h0.4v32.9c-2.6,0.9-4.5,3.3-4.5,6.2c0,2.5,1.4,4.7,3.5,5.8c-2.6,1-4.7,3.3-5.5,6.2c-0.8-1.3-2-2.4-3.4-3
		c1.8-1,3-2.9,3-5.1c0-3.3-2.6-5.9-5.9-5.9s-5.9,2.6-5.9,5.9c0,2.2,1.2,4.1,3,5.1C13.6,79,12.6,79.9,11.8,81L11.8,81z M17.7,77.2
		c-2.1,0-3.9-1.7-3.9-3.9s1.7-3.9,3.9-3.9s3.9,1.8,3.9,3.9S19.9,77.2,17.7,77.2z M12.2,91.8l0-6c0-3.3,2.5-6,5.5-6s5.5,2.7,5.5,6
		l0,6L12.2,91.8C12.2,91.8,12.2,91.8,12.2,91.8z M25.6,91.7l0-7.5c0-4.1,3.1-7.5,6.9-7.5s6.9,3.4,6.9,7.5l0,7.5L25.6,91.7L25.6,91.7
		z M42,91.6l0-8.7c0-4.8,3.6-8.7,7.9-8.7s7.9,3.9,7.9,8.7l0,8.7H42z M60.5,91.7l0-7.5c0-4.1,3.1-7.5,6.9-7.5s6.9,3.4,6.9,7.5l0,7.5
		L60.5,91.7L60.5,91.7z M76.7,91.8l0-6c0-3.3,2.5-6,5.5-6s5.5,2.7,5.5,6l0,6L76.7,91.8L76.7,91.8z M82.2,77.2
		c-2.1,0-3.9-1.7-3.9-3.9s1.7-3.9,3.9-3.9s3.9,1.8,3.9,3.9S84.3,77.2,82.2,77.2z M92.4,81h-4.3c-0.8-1.1-1.8-2-3.1-2.5
		c1.8-1,3-2.9,3-5.1c0-3.3-2.6-5.9-5.9-5.9s-5.9,2.6-5.9,5.9c0,2.2,1.2,4.1,3,5.1c-1.4,0.6-2.6,1.7-3.4,3c-0.8-2.9-2.9-5.2-5.5-6.2
		c2.1-1.1,3.5-3.3,3.5-5.8c0-2.4-1.3-4.4-3.2-5.6V30.4h21.6L92.4,81L92.4,81z"/>
	<rect x="84.7" y="38.4" class="st0" width="2.2" height="26.4"/>
	<rect x="76.2" y="38.4" class="st0" width="2.2" height="26.4"/>
	<rect x="13.1" y="38.4" class="st0" width="2.1" height="26.4"/>
	<rect x="21.5" y="38.4" class="st0" width="2.1" height="26.4"/>
	<path class="st0" d="M40.1,26h19.8c0.5,0,1-0.5,1-1V12.8c0-0.6-0.5-1-1-1H40.1c-0.5,0-1,0.4-1,1V25C39.1,25.5,39.5,26,40.1,26z
		 M41.1,13.8h17.8V24H41.1V13.8z"/>
	<rect x="60.1" y="34.6" class="st1" width="3.8" height="3.8"/>
	<rect x="54.3" y="28.7" class="st1" width="3.8" height="3.9"/>
	<rect x="54.3" y="34.6" class="st1" width="3.8" height="3.8"/>
	<rect x="54.3" y="40.6" class="st1" width="3.8" height="3.8"/>
	<rect x="54.3" y="46.5" class="st1" width="3.8" height="3.8"/>
	<rect x="60.1" y="40.6" class="st1" width="3.8" height="3.8"/>
	<rect x="60.1" y="46.5" class="st1" width="3.8" height="3.8"/>
	<rect x="54.3" y="52.6" class="st1" width="3.8" height="3.8"/>
	<rect x="48.1" y="28.7" class="st1" width="3.8" height="3.9"/>
	<rect x="48.1" y="34.6" class="st1" width="3.8" height="3.8"/>
	<rect x="48.1" y="40.6" class="st1" width="3.8" height="3.8"/>
	<rect x="48.1" y="46.5" class="st1" width="3.8" height="3.8"/>
	<rect x="48.1" y="52.6" class="st1" width="3.8" height="3.8"/>
	<rect x="42" y="28.7" class="st1" width="3.8" height="3.9"/>
	<rect x="42" y="34.6" class="st1" width="3.8" height="3.8"/>
	<rect x="42" y="40.6" class="st1" width="3.8" height="3.8"/>
	<rect x="42" y="46.5" class="st1" width="3.8" height="3.8"/>
	<rect x="42" y="52.6" class="st1" width="3.8" height="3.8"/>
	<rect x="60.1" y="52.6" class="st1" width="3.8" height="3.8"/>
	<rect x="36.1" y="34.6" class="st1" width="3.8" height="3.8"/>
	<rect x="36.1" y="40.6" class="st1" width="3.8" height="3.8"/>
	<rect x="36.1" y="46.5" class="st1" width="3.8" height="3.8"/>
	<rect x="36.1" y="52.6" class="st1" width="3.8" height="3.8"/>
</g>
</svg>
